<?xml version="1.0" encoding="utf-8"?>
<svg viewBox="0 0 205 65" xmlns="http://www.w3.org/2000/svg" xmlns:bx="https://boxy-svg.com" height="65px">
  <defs>
    <radialGradient id="gradient-1" gradientUnits="userSpaceOnUse" cx="152.286" cy="126.898" r="330" gradientTransform="matrix(0.638467, -1.091841, 1.097297, 0.641658, 52.656119, 215.401816)">
      <stop offset="0" style="stop-color: rgb(0, 170, 237);"/>
      <stop offset="1" style="stop-color: rgb(0, 145, 202);"/>
    </radialGradient>
    <linearGradient id="gradient-0" gradientUnits="userSpaceOnUse" x1="330" y1="0" x2="330" y2="660" gradientTransform="matrix(0.980745, -0.195296, 0.195753, 0.983035, -58.734308, 67.665557)">
      <stop offset="0" style="stop-color: rgb(152, 226, 255);"/>
      <stop offset="1" style="stop-color: rgb(78, 193, 239);"/>
    </linearGradient>
    <bx:grid x="0" y="0" width="190" height="80"/>
  </defs>
  <g transform="matrix(0.341978, 0, 0, 0.341978, -0.561026, 0.22259)">
    <g transform="matrix(0.283555, 0, 0, 0.283555, 3.122751, 1.671054)">
      <title>Logo</title>
      <circle style="fill: url(&quot;#gradient-1&quot;); stroke: url(&quot;#gradient-0&quot;); paint-order: fill; stroke-width: 10.3125px;" cx="329.929" cy="326.968" r="330">
        <title>Main circle</title>
      </circle>
      <g transform="matrix(1, 0, 0, 1, 76.243515, 77.183487)">
        <title>Inner circles</title>
        <circle style="fill: rgb(255, 255, 255); stroke: rgb(152, 226, 255); paint-order: fill; stroke-width: 10.3125px;" cx="254.358" cy="253.337" r="75"/>
        <circle style="fill: rgb(212, 243, 255); stroke: rgb(99, 211, 255); paint-order: fill; stroke-width: 10.3125px;" cx="215.084" cy="54.739" r="57.5"/>
        <circle style="stroke: rgb(78, 193, 239); fill: rgb(179, 233, 255); paint-order: fill; stroke-width: 10.3125px;" cx="63.26" cy="186.66" r="42.5"/>
        <circle style="stroke: rgb(78, 193, 239); fill: rgb(179, 233, 255); paint-order: fill; stroke-width: 10.3125px;" cx="405.584" cy="120.172" r="42.5"/>
        <circle style="stroke: rgb(78, 193, 239); fill: rgb(179, 233, 255); paint-order: fill; stroke-width: 10.3125px;" cx="444.253" cy="318.582" r="42.5"/>
        <circle style="stroke: rgb(78, 193, 239); fill: rgb(179, 233, 255); paint-order: fill; stroke-width: 10.3125px;" cx="101.614" cy="385.13" r="42.5"/>
        <circle style="fill: rgb(212, 243, 255); stroke: rgb(99, 211, 255); paint-order: fill; stroke-width: 10.3125px;" cx="291.529" cy="450.894" r="57.5"/>
      </g>
    </g>
    <g transform="matrix(1, 0, 0, 1, -3.848826, -4.564161)" style="">
      <title>Text</title>
      <path d="M 224.881 62.515 L 224.553 57.355 L 249.287 53.997 Q 248.959 49.493 246.175 46.585 Q 243.39 43.678 238.476 43.678 Q 233.398 43.678 230.081 47.323 Q 226.764 50.967 226.764 57.765 L 226.764 59.567 Q 227.338 66.119 231.064 69.517 Q 234.791 72.916 241.261 72.916 Q 244.7 72.916 247.485 71.77 Q 250.27 70.623 251.908 69.313 Q 252.809 69.886 253.341 70.664 Q 253.873 71.442 253.873 72.425 Q 253.873 73.981 252.112 75.332 Q 250.352 76.684 247.444 77.503 Q 244.537 78.322 240.933 78.322 Q 234.627 78.322 229.999 76.029 Q 225.372 73.735 222.874 69.19 Q 220.376 64.644 220.376 58.092 Q 220.376 53.424 221.727 49.78 Q 223.079 46.135 225.495 43.596 Q 227.911 41.057 231.269 39.706 Q 234.627 38.355 238.558 38.355 Q 243.554 38.355 247.362 40.484 Q 251.171 42.613 253.341 46.422 Q 255.511 50.23 255.511 55.144 Q 255.511 56.946 254.692 57.724 Q 253.873 58.502 252.399 58.666 Z M 278.521 72.998 Q 281.961 72.998 284.213 72.302 Q 286.465 71.606 287.448 70.951 L 287.448 59.075 L 277.292 60.14 Q 273.034 60.468 270.986 62.024 Q 268.939 63.58 268.939 66.528 Q 268.939 69.558 271.355 71.278 Q 273.771 72.998 278.521 72.998 Z M 278.439 38.355 Q 285.564 38.355 289.741 41.549 Q 293.918 44.743 293.918 51.622 L 293.918 71.033 Q 293.918 72.834 293.222 73.776 Q 292.526 74.718 291.134 75.537 Q 289.168 76.602 285.892 77.503 Q 282.616 78.404 278.521 78.404 Q 270.822 78.404 266.605 75.373 Q 262.387 72.343 262.387 66.61 Q 262.387 61.287 265.949 58.461 Q 269.512 55.635 275.818 55.062 L 287.448 53.916 L 287.448 51.622 Q 287.448 47.527 284.991 45.644 Q 282.534 43.76 278.357 43.76 Q 274.999 43.76 271.928 44.743 Q 268.857 45.726 266.482 46.954 Q 265.826 46.381 265.294 45.603 Q 264.762 44.825 264.762 44.006 Q 264.762 41.876 267.137 40.73 Q 269.348 39.583 272.256 38.969 Q 275.163 38.355 278.439 38.355 Z M 332.576 67.183 Q 332.576 72.425 328.727 75.373 Q 324.877 78.322 317.588 78.322 Q 311.364 78.322 307.433 76.397 Q 303.502 74.472 303.502 72.179 Q 303.502 71.196 304.034 70.255 Q 304.566 69.313 305.631 68.739 Q 307.842 70.296 310.791 71.606 Q 313.739 72.916 317.506 72.916 Q 326.024 72.916 326.024 67.183 Q 326.024 64.808 324.591 63.293 Q 323.158 61.778 320.373 61.123 L 313.575 59.321 Q 308.579 58.092 306.286 55.513 Q 303.993 52.933 303.993 49.083 Q 303.993 44.743 307.515 41.549 Q 311.036 38.355 318.244 38.355 Q 322.093 38.355 324.959 39.133 Q 327.826 39.911 329.423 41.18 Q 331.02 42.45 331.02 43.924 Q 331.02 44.988 330.488 45.807 Q 329.955 46.626 329.054 47.036 Q 328.072 46.381 326.556 45.603 Q 325.041 44.825 322.994 44.292 Q 320.946 43.76 318.489 43.76 Q 314.886 43.76 312.674 45.152 Q 310.463 46.545 310.463 49.083 Q 310.463 50.885 311.733 52.237 Q 313.002 53.588 315.787 54.243 L 321.438 55.635 Q 327.007 56.946 329.791 59.771 Q 332.576 62.597 332.576 67.183 Z M 348.956 68.821 Q 347.564 66.201 345.599 61.737 Q 343.633 57.273 341.544 51.745 Q 339.456 46.217 337.572 40.484 Q 338.146 39.665 339.087 39.174 Q 340.029 38.682 341.094 38.682 Q 342.486 38.682 343.387 39.419 Q 344.288 40.156 344.861 41.876 Q 347.318 48.756 350.021 55.554 Q 352.724 62.351 356 69.64 L 356.327 69.64 Q 358.047 66.201 359.931 61.041 Q 361.815 55.881 363.535 50.148 Q 365.255 44.415 366.401 39.337 Q 366.974 39.092 367.671 38.887 Q 368.367 38.682 369.186 38.682 Q 370.578 38.682 371.479 39.378 Q 372.38 40.074 372.38 41.467 Q 372.38 42.777 371.643 45.848 Q 370.906 48.92 369.636 52.974 Q 368.367 57.028 366.688 61.573 Q 365.009 66.119 363.084 70.5 Q 361.16 74.882 359.194 78.404 Q 355.427 85.365 352.314 89.092 Q 349.202 92.818 346.581 92.818 Q 344.698 92.818 343.674 91.835 Q 342.65 90.852 342.404 89.542 Q 344.206 87.986 346.458 85.406 Q 348.711 82.826 350.799 79.837 Q 352.888 76.848 354.198 74.145 Q 352.806 73.735 351.618 72.671 Q 350.431 71.606 348.956 68.821 Z" style="line-height: 191.825px; text-wrap-mode: nowrap;">
        <title>easy</title>
      </path>
      <path d="M 247.344 151.213 L 247.344 125.497 L 257.418 125.497 L 257.418 152.278 Q 257.418 154.08 256.64 155.267 Q 255.862 156.455 254.142 157.52 Q 252.176 158.83 248.778 159.854 Q 245.379 160.878 241.038 160.878 Q 234.568 160.878 229.777 158.707 Q 224.986 156.537 222.365 151.991 Q 219.744 147.446 219.744 140.485 Q 219.744 133.359 222.406 128.773 Q 225.068 124.186 229.572 122.016 Q 234.077 119.846 239.564 119.846 Q 242.594 119.846 245.092 120.583 Q 247.59 121.32 249.146 122.303 L 249.146 130.902 Q 247.836 129.674 245.706 128.773 Q 243.577 127.872 240.792 127.872 Q 237.762 127.872 235.305 129.141 Q 232.848 130.411 231.456 133.236 Q 230.063 136.062 230.063 140.566 Q 230.063 146.955 233.012 149.903 Q 235.96 152.851 240.956 152.851 Q 243.167 152.851 244.724 152.36 Q 246.28 151.869 247.344 151.213 Z M 257.418 127.544 L 247.344 127.626 L 247.344 106.496 Q 247.918 106.332 249.187 106.087 Q 250.457 105.841 251.849 105.841 Q 254.797 105.841 256.108 106.865 Q 257.418 107.888 257.418 110.509 Z M 267.549 109.444 Q 267.549 107.069 269.228 105.431 Q 270.907 103.793 273.446 103.793 Q 276.067 103.793 277.664 105.431 Q 279.261 107.069 279.261 109.444 Q 279.261 111.738 277.664 113.417 Q 276.067 115.096 273.446 115.096 Q 270.907 115.096 269.228 113.417 Q 267.549 111.738 267.549 109.444 Z M 268.368 138.109 L 278.524 138.109 L 278.524 159.567 Q 277.868 159.813 276.64 160.018 Q 275.411 160.222 273.937 160.222 Q 271.153 160.222 269.76 159.199 Q 268.368 158.175 268.368 155.554 Z M 278.524 143.269 L 268.368 143.269 L 268.368 121.32 Q 269.023 121.074 270.293 120.869 Q 271.562 120.665 273.036 120.665 Q 275.903 120.665 277.213 121.688 Q 278.524 122.712 278.524 125.415 Z M 297.66 131.394 L 297.66 123.531 L 314.122 123.531 Q 314.449 124.105 314.818 125.128 Q 315.186 126.152 315.186 127.462 Q 315.186 129.51 314.244 130.452 Q 313.303 131.394 311.583 131.394 Z M 299.216 119.6 L 299.216 130.165 L 289.552 130.165 L 289.552 119.191 Q 289.552 114.031 291.64 110.796 Q 293.728 107.561 297.455 106.046 Q 301.181 104.53 305.932 104.53 Q 311.255 104.53 314.04 105.923 Q 316.824 107.315 316.824 110.1 Q 316.824 111.328 316.292 112.352 Q 315.76 113.376 315.022 114.031 Q 313.466 113.376 311.542 112.966 Q 309.617 112.557 307.488 112.557 Q 303.147 112.557 301.181 114.195 Q 299.216 115.833 299.216 119.6 Z M 289.552 127.299 L 299.625 127.299 L 299.625 159.567 Q 298.97 159.813 297.742 160.018 Q 296.513 160.222 295.039 160.222 Q 292.254 160.222 290.903 159.199 Q 289.552 158.175 289.552 155.554 Z M 330.338 131.394 L 330.338 123.531 L 346.8 123.531 Q 347.127 124.105 347.496 125.128 Q 347.864 126.152 347.864 127.462 Q 347.864 129.51 346.922 130.452 Q 345.981 131.394 344.261 131.394 Z M 331.894 119.6 L 331.894 130.165 L 322.23 130.165 L 322.23 119.191 Q 322.23 114.031 324.318 110.796 Q 326.407 107.561 330.133 106.046 Q 333.859 104.53 338.61 104.53 Q 343.933 104.53 346.718 105.923 Q 349.502 107.315 349.502 110.1 Q 349.502 111.328 348.97 112.352 Q 348.438 113.376 347.701 114.031 Q 346.144 113.376 344.22 112.966 Q 342.295 112.557 340.166 112.557 Q 335.825 112.557 333.859 114.195 Q 331.894 115.833 331.894 119.6 Z M 322.23 127.299 L 332.303 127.299 L 332.303 159.567 Q 331.648 159.813 330.42 160.018 Q 329.191 160.222 327.717 160.222 Q 324.932 160.222 323.581 159.199 Q 322.23 158.175 322.23 155.554 Z M 366.028 130.247 L 366.028 141.467 L 355.955 141.467 L 355.955 129.428 Q 355.955 127.381 356.937 125.947 Q 357.92 124.514 359.722 123.286 Q 362.179 121.811 365.946 120.829 Q 369.714 119.846 374.055 119.846 Q 381.753 119.846 381.753 124.596 Q 381.753 125.743 381.426 126.684 Q 381.098 127.626 380.607 128.363 Q 379.788 128.2 378.559 128.077 Q 377.331 127.954 375.938 127.954 Q 372.99 127.954 370.41 128.568 Q 367.83 129.182 366.028 130.247 Z M 355.955 138.109 L 366.028 138.601 L 366.028 159.567 Q 365.373 159.813 364.145 160.018 Q 362.916 160.222 361.442 160.222 Q 358.657 160.222 357.306 159.199 Q 355.955 158.175 355.955 155.554 Z M 402.808 153.261 Q 405.265 153.261 407.231 152.77 Q 409.197 152.278 410.098 151.705 L 410.098 142.368 L 401.989 143.187 Q 398.632 143.433 396.871 144.62 Q 395.11 145.808 395.11 148.101 Q 395.11 150.476 396.994 151.869 Q 398.877 153.261 402.808 153.261 Z M 402.399 119.846 Q 410.425 119.846 415.175 123.245 Q 419.926 126.643 419.926 133.933 L 419.926 152.77 Q 419.926 154.735 418.984 155.882 Q 418.042 157.028 416.568 157.929 Q 414.274 159.24 410.753 160.1 Q 407.231 160.96 402.808 160.96 Q 394.618 160.96 389.95 157.806 Q 385.282 154.653 385.282 148.429 Q 385.282 142.942 388.763 140.034 Q 392.243 137.127 398.877 136.471 L 410.016 135.325 L 410.016 133.851 Q 410.016 130.575 407.763 129.1 Q 405.511 127.626 401.416 127.626 Q 398.222 127.626 395.192 128.445 Q 392.161 129.264 389.786 130.411 Q 388.967 129.756 388.312 128.609 Q 387.657 127.462 387.657 126.234 Q 387.657 123.286 390.933 121.893 Q 393.226 120.829 396.297 120.337 Q 399.369 119.846 402.399 119.846 Z M 450.115 127.954 Q 445.201 127.954 441.884 131.148 Q 438.567 134.342 438.567 140.485 Q 438.567 146.545 441.761 149.657 Q 444.955 152.77 450.033 152.77 Q 453.063 152.77 455.152 151.991 Q 457.24 151.213 458.796 150.313 Q 460.025 151.05 460.721 152.073 Q 461.417 153.097 461.417 154.571 Q 461.417 157.356 458.059 159.117 Q 454.701 160.878 449.214 160.878 Q 442.989 160.878 438.28 158.625 Q 433.571 156.373 430.909 151.787 Q 428.247 147.2 428.247 140.485 Q 428.247 133.523 431.073 128.937 Q 433.899 124.35 438.608 122.098 Q 443.317 119.846 448.968 119.846 Q 454.374 119.846 457.65 121.729 Q 460.926 123.613 460.926 126.398 Q 460.926 127.626 460.27 128.691 Q 459.615 129.756 458.714 130.411 Q 457.076 129.428 455.029 128.691 Q 452.981 127.954 450.115 127.954 Z M 469.875 138.109 L 479.949 138.109 L 479.949 147.774 Q 479.949 150.476 481.546 151.623 Q 483.143 152.77 486.091 152.77 Q 487.402 152.77 488.917 152.442 Q 490.432 152.114 491.497 151.623 Q 492.07 152.278 492.562 153.179 Q 493.053 154.08 493.053 155.39 Q 493.053 157.765 490.801 159.322 Q 488.548 160.878 483.798 160.878 Q 477.328 160.878 473.602 157.97 Q 469.875 155.063 469.875 148.511 Z M 476.018 129.756 L 476.018 121.811 L 492.07 121.811 Q 492.398 122.385 492.766 123.449 Q 493.135 124.514 493.135 125.661 Q 493.135 127.708 492.152 128.732 Q 491.169 129.756 489.613 129.756 Z M 479.949 140.321 L 469.875 140.321 L 469.875 110.837 Q 470.53 110.591 471.8 110.345 Q 473.069 110.1 474.462 110.1 Q 477.328 110.1 478.639 111.123 Q 479.949 112.147 479.949 114.768 Z M 500.749 109.444 Q 500.749 107.069 502.428 105.431 Q 504.106 103.793 506.645 103.793 Q 509.266 103.793 510.863 105.431 Q 512.46 107.069 512.46 109.444 Q 512.46 111.738 510.863 113.417 Q 509.266 115.096 506.645 115.096 Q 504.106 115.096 502.428 113.417 Q 500.749 111.738 500.749 109.444 Z M 501.568 138.109 L 511.723 138.109 L 511.723 159.567 Q 511.068 159.813 509.839 160.018 Q 508.611 160.222 507.137 160.222 Q 504.352 160.222 502.96 159.199 Q 501.568 158.175 501.568 155.554 Z M 511.723 143.269 L 501.568 143.269 L 501.568 121.32 Q 502.223 121.074 503.492 120.869 Q 504.762 120.665 506.236 120.665 Q 509.102 120.665 510.413 121.688 Q 511.723 122.712 511.723 125.415 Z M 560.593 140.321 Q 560.593 146.627 558.138 151.237 Q 555.683 155.848 551.212 158.363 Q 546.74 160.878 540.691 160.878 Q 534.646 160.878 530.134 158.38 Q 525.621 155.882 523.123 151.295 Q 520.625 146.709 520.625 140.321 Q 520.625 134.011 523.164 129.426 Q 525.703 124.842 530.208 122.344 Q 534.712 119.846 540.678 119.846 Q 546.644 119.846 551.118 122.375 Q 555.592 124.905 558.092 129.501 Q 560.593 134.096 560.593 140.321 Z M 540.638 127.872 Q 536.186 127.872 533.607 131.148 Q 531.027 134.424 531.027 140.321 Q 531.027 146.381 533.575 149.616 Q 536.124 152.851 540.691 152.851 Q 545.195 152.851 547.734 149.575 Q 550.273 146.299 550.273 140.321 Q 550.273 134.506 547.715 131.189 Q 545.157 127.872 540.638 127.872 Z M 604.969 134.424 L 604.969 142.368 L 594.895 142.368 L 594.895 134.833 Q 594.895 131.23 592.848 129.551 Q 590.8 127.872 587.361 127.872 Q 584.822 127.872 582.815 128.486 Q 580.809 129.1 579.253 129.919 L 579.253 142.368 L 569.179 142.368 L 569.179 129.264 Q 569.179 127.299 569.998 126.029 Q 570.817 124.76 572.455 123.695 Q 574.912 122.057 578.802 120.951 Q 582.692 119.846 587.443 119.846 Q 595.714 119.846 600.342 123.531 Q 604.969 127.217 604.969 134.424 Z M 569.179 138.355 L 579.253 138.355 L 579.253 159.567 Q 578.597 159.813 577.369 160.018 Q 576.14 160.222 574.666 160.222 Q 571.882 160.222 570.53 159.199 Q 569.179 158.175 569.179 155.554 Z M 594.895 138.355 L 604.969 138.355 L 604.969 159.567 Q 604.396 159.813 603.126 160.018 Q 601.857 160.222 600.465 160.222 Q 597.598 160.222 596.247 159.199 Q 594.895 158.175 594.895 155.554 Z" style="line-height: 191.825px; text-wrap-mode: nowrap;">
        <title>diffraction</title>
      </path>
    </g>
  </g>
</svg>