<?xml version="1.0" encoding="utf-8"?>
<svg viewBox="0 0 231 65" xmlns="http://www.w3.org/2000/svg" height="65px" width="231px">
  <defs>
    <radialGradient id="gradient-1" gradientUnits="userSpaceOnUse" cx="152.286" cy="126.898" r="330" gradientTransform="matrix(0.638467, -1.091841, 1.097297, 0.641658, 52.727183, 218.434182)">
      <stop offset="0" style="stop-color: rgb(0, 170, 237);"/>
      <stop offset="1" style="stop-color: rgb(0, 145, 202);"/>
    </radialGradient>
    <linearGradient id="gradient-0" gradientUnits="userSpaceOnUse" x1="330" y1="0" x2="330" y2="660" gradientTransform="matrix(0.980745, -0.195296, 0.195753, 0.983035, -58.663244, 70.697931)">
      <stop offset="0" style="stop-color: rgb(152, 226, 255);"/>
      <stop offset="1" style="stop-color: rgb(78, 193, 239);"/>
    </linearGradient>
  </defs>
  <g transform="matrix(0.341978, 0, 0, 0.341978, 0.232088, 0.01757)">
    <g transform="matrix(0.276515, 0, 0, 0.276515, 4, 3.750038)">
      <g transform="matrix(1, 0, 0, 1, -3.172519, 0)">
        <circle style="fill: url(#gradient-1); stroke: url(#gradient-0); stroke-width: 20px;" cx="330" cy="330" r="330"/>
        <g transform="matrix(1, 0, 0, 1, 76.243515, 77.183487)">
          <circle style="fill: rgb(255, 255, 255); stroke: rgb(152, 226, 255); stroke-width: 20px;" cx="254.358" cy="253.337" r="75"/>
          <circle style="fill: rgb(212, 243, 255); stroke: rgb(99, 211, 255); stroke-width: 20px;" cx="215.084" cy="54.739" r="57.5"/>
          <circle style="stroke: rgb(78, 193, 239); fill: rgb(179, 233, 255); stroke-width: 20px;" cx="63.26" cy="186.66" r="42.5"/>
          <circle style="stroke: rgb(78, 193, 239); fill: rgb(179, 233, 255); stroke-width: 20px;" cx="405.584" cy="120.172" r="42.5"/>
          <circle style="stroke: rgb(78, 193, 239); fill: rgb(179, 233, 255); stroke-width: 20px;" cx="444.253" cy="318.582" r="42.5"/>
          <circle style="stroke: rgb(78, 193, 239); fill: rgb(179, 233, 255); stroke-width: 20px;" cx="101.614" cy="385.13" r="42.5"/>
          <circle style="fill: rgb(212, 243, 255); stroke: rgb(99, 211, 255); stroke-width: 20px;" cx="291.529" cy="450.894" r="57.5"/>
        </g>
      </g>
    </g>
    <g transform="matrix(1, 0, 0, 1, -0.946123, 0)">
      <path d="M 225.522 51.115 L 225.136 45.036 L 254.279 41.079 Q 253.893 35.772 250.612 32.346 Q 247.331 28.92 241.541 28.92 Q 235.558 28.92 231.65 33.214 Q 227.742 37.509 227.742 45.518 L 227.742 47.641 Q 228.417 55.361 232.808 59.366 Q 237.199 63.371 244.822 63.371 Q 248.875 63.371 252.156 62.02 Q 255.437 60.669 257.367 59.125 Q 258.429 59.8 259.056 60.717 Q 259.683 61.634 259.683 62.792 Q 259.683 64.625 257.608 66.217 Q 255.534 67.81 252.108 68.775 Q 248.682 69.74 244.436 69.74 Q 237.006 69.74 231.553 67.038 Q 226.101 64.336 223.158 58.98 Q 220.215 53.624 220.215 45.904 Q 220.215 40.404 221.807 36.109 Q 223.399 31.815 226.246 28.824 Q 229.093 25.832 233.049 24.24 Q 237.006 22.648 241.638 22.648 Q 247.524 22.648 252.011 25.157 Q 256.499 27.666 259.056 32.153 Q 261.613 36.64 261.613 42.43 Q 261.613 44.553 260.648 45.47 Q 259.683 46.387 257.946 46.58 Z M 288.729 63.467 Q 292.782 63.467 295.436 62.647 Q 298.089 61.827 299.247 61.055 L 299.247 47.062 L 287.281 48.317 Q 282.263 48.703 279.851 50.536 Q 277.438 52.37 277.438 55.844 Q 277.438 59.414 280.285 61.441 Q 283.132 63.467 288.729 63.467 Z M 288.632 22.648 Q 297.028 22.648 301.949 26.411 Q 306.871 30.175 306.871 38.281 L 306.871 61.151 Q 306.871 63.274 306.051 64.384 Q 305.23 65.494 303.59 66.459 Q 301.274 67.713 297.414 68.775 Q 293.554 69.836 288.729 69.836 Q 279.658 69.836 274.688 66.266 Q 269.718 62.695 269.718 55.94 Q 269.718 49.668 273.916 46.338 Q 278.114 43.009 285.544 42.334 L 299.247 40.983 L 299.247 38.281 Q 299.247 33.456 296.352 31.236 Q 293.457 29.017 288.536 29.017 Q 284.579 29.017 280.961 30.175 Q 277.342 31.333 274.543 32.78 Q 273.771 32.105 273.144 31.188 Q 272.517 30.271 272.517 29.306 Q 272.517 26.797 275.315 25.446 Q 277.921 24.095 281.347 23.371 Q 284.772 22.648 288.632 22.648 Z M 352.418 56.616 Q 352.418 62.792 347.882 66.266 Q 343.347 69.74 334.758 69.74 Q 327.424 69.74 322.792 67.472 Q 318.16 65.204 318.16 62.502 Q 318.16 61.344 318.787 60.234 Q 319.415 59.125 320.669 58.449 Q 323.275 60.283 326.749 61.827 Q 330.223 63.371 334.662 63.371 Q 344.698 63.371 344.698 56.616 Q 344.698 53.817 343.009 52.032 Q 341.32 50.247 338.039 49.475 L 330.03 47.352 Q 324.143 45.904 321.441 42.864 Q 318.739 39.825 318.739 35.289 Q 318.739 30.175 322.889 26.411 Q 327.038 22.648 335.53 22.648 Q 340.066 22.648 343.443 23.564 Q 346.821 24.481 348.702 25.977 Q 350.584 27.473 350.584 29.21 Q 350.584 30.464 349.957 31.429 Q 349.33 32.394 348.268 32.877 Q 347.11 32.105 345.325 31.188 Q 343.54 30.271 341.127 29.644 Q 338.715 29.017 335.82 29.017 Q 331.574 29.017 328.968 30.657 Q 326.363 32.298 326.363 35.289 Q 326.363 37.412 327.858 39.004 Q 329.354 40.597 332.635 41.369 L 339.294 43.009 Q 345.856 44.553 349.137 47.882 Q 352.418 51.212 352.418 56.616 Z M 371.717 58.546 Q 370.077 55.458 367.761 50.198 Q 365.445 44.939 362.984 38.425 Q 360.523 31.912 358.304 25.157 Q 358.979 24.192 360.089 23.613 Q 361.199 23.034 362.453 23.034 Q 364.094 23.034 365.155 23.902 Q 366.217 24.771 366.892 26.797 Q 369.787 34.903 372.972 42.913 Q 376.156 50.922 380.016 59.511 L 380.402 59.511 Q 382.429 55.458 384.648 49.378 Q 386.868 43.299 388.894 36.544 Q 390.921 29.789 392.272 23.806 Q 392.947 23.516 393.767 23.275 Q 394.588 23.034 395.553 23.034 Q 397.193 23.034 398.255 23.854 Q 399.316 24.674 399.316 26.315 Q 399.316 27.859 398.448 31.477 Q 397.579 35.096 396.083 39.873 Q 394.588 44.65 392.609 50.005 Q 390.631 55.361 388.363 60.524 Q 386.096 65.687 383.78 69.836 Q 379.341 78.039 375.674 82.429 Q 372.007 86.82 368.919 86.82 Q 366.699 86.82 365.493 85.662 Q 364.287 84.504 363.997 82.96 Q 366.12 81.127 368.774 78.087 Q 371.428 75.047 373.888 71.525 Q 376.349 68.003 377.893 64.818 Q 376.253 64.336 374.853 63.081 Q 373.454 61.827 371.717 58.546 Z" style="line-height: 191.825px; text-wrap-mode: nowrap;"/>
      <path d="M 252.849 155.543 L 252.849 125.242 L 264.718 125.242 L 264.718 156.798 Q 264.718 158.921 263.801 160.32 Q 262.885 161.719 260.858 162.974 Q 258.542 164.518 254.537 165.724 Q 250.533 166.93 245.418 166.93 Q 237.795 166.93 232.149 164.373 Q 226.504 161.816 223.416 156.46 Q 220.328 151.104 220.328 142.902 Q 220.328 134.506 223.464 129.102 Q 226.601 123.698 231.908 121.141 Q 237.216 118.584 243.681 118.584 Q 247.252 118.584 250.195 119.452 Q 253.138 120.321 254.972 121.479 L 254.972 131.611 Q 253.428 130.164 250.919 129.102 Q 248.41 128.041 245.129 128.041 Q 241.558 128.041 238.663 129.536 Q 235.768 131.032 234.128 134.361 Q 232.487 137.691 232.487 142.998 Q 232.487 150.525 235.961 153.999 Q 239.435 157.473 245.322 157.473 Q 247.927 157.473 249.761 156.894 Q 251.594 156.315 252.849 155.543 Z M 264.718 127.655 L 252.849 127.751 L 252.849 102.854 Q 253.524 102.661 255.02 102.372 Q 256.516 102.082 258.156 102.082 Q 261.63 102.082 263.174 103.288 Q 264.718 104.495 264.718 107.583 Z M 276.654 106.328 Q 276.654 103.53 278.632 101.6 Q 280.611 99.67 283.602 99.67 Q 286.69 99.67 288.572 101.6 Q 290.454 103.53 290.454 106.328 Q 290.454 109.03 288.572 111.008 Q 286.69 112.987 283.602 112.987 Q 280.611 112.987 278.632 111.008 Q 276.654 109.03 276.654 106.328 Z M 277.619 140.103 L 289.585 140.103 L 289.585 165.386 Q 288.813 165.676 287.366 165.917 Q 285.918 166.158 284.181 166.158 Q 280.9 166.158 279.26 164.952 Q 277.619 163.746 277.619 160.658 Z M 289.585 146.183 L 277.619 146.183 L 277.619 120.321 Q 278.391 120.031 279.887 119.79 Q 281.383 119.549 283.12 119.549 Q 286.497 119.549 288.041 120.755 Q 289.585 121.961 289.585 125.146 Z M 312.134 132.19 L 312.134 122.926 L 331.53 122.926 Q 331.916 123.602 332.351 124.808 Q 332.785 126.014 332.785 127.558 Q 332.785 129.971 331.675 131.08 Q 330.565 132.19 328.539 132.19 Z M 313.967 118.294 L 313.967 130.743 L 302.58 130.743 L 302.58 117.812 Q 302.58 111.732 305.041 107.92 Q 307.502 104.109 311.893 102.323 Q 316.283 100.538 321.88 100.538 Q 328.153 100.538 331.434 102.179 Q 334.715 103.819 334.715 107.1 Q 334.715 108.548 334.088 109.754 Q 333.46 110.96 332.592 111.732 Q 330.758 110.96 328.491 110.478 Q 326.223 109.995 323.714 109.995 Q 318.599 109.995 316.283 111.925 Q 313.967 113.855 313.967 118.294 Z M 302.58 127.365 L 314.45 127.365 L 314.45 165.386 Q 313.678 165.676 312.23 165.917 Q 310.783 166.158 309.046 166.158 Q 305.765 166.158 304.173 164.952 Q 302.58 163.746 302.58 160.658 Z M 350.637 132.19 L 350.637 122.926 L 370.034 122.926 Q 370.42 123.602 370.854 124.808 Q 371.288 126.014 371.288 127.558 Q 371.288 129.971 370.179 131.08 Q 369.069 132.19 367.042 132.19 Z M 352.471 118.294 L 352.471 130.743 L 341.084 130.743 L 341.084 117.812 Q 341.084 111.732 343.545 107.92 Q 346.005 104.109 350.396 102.323 Q 354.787 100.538 360.384 100.538 Q 366.656 100.538 369.937 102.179 Q 373.218 103.819 373.218 107.1 Q 373.218 108.548 372.591 109.754 Q 371.964 110.96 371.095 111.732 Q 369.262 110.96 366.994 110.478 Q 364.726 109.995 362.217 109.995 Q 357.103 109.995 354.787 111.925 Q 352.471 113.855 352.471 118.294 Z M 341.084 127.365 L 352.953 127.365 L 352.953 165.386 Q 352.181 165.676 350.734 165.917 Q 349.286 166.158 347.549 166.158 Q 344.268 166.158 342.676 164.952 Q 341.084 163.746 341.084 160.658 Z M 392.69 130.839 L 392.69 144.06 L 380.821 144.06 L 380.821 129.874 Q 380.821 127.462 381.979 125.773 Q 383.137 124.084 385.26 122.637 Q 388.155 120.9 392.594 119.742 Q 397.033 118.584 402.147 118.584 Q 411.218 118.584 411.218 124.181 Q 411.218 125.532 410.832 126.641 Q 410.446 127.751 409.867 128.62 Q 408.902 128.427 407.455 128.282 Q 406.007 128.137 404.367 128.137 Q 400.893 128.137 397.853 128.861 Q 394.813 129.585 392.69 130.839 Z M 380.821 140.103 L 392.69 140.682 L 392.69 165.386 Q 391.918 165.676 390.471 165.917 Q 389.023 166.158 387.286 166.158 Q 384.005 166.158 382.413 164.952 Q 380.821 163.746 380.821 160.658 Z M 436.028 157.956 Q 438.923 157.956 441.239 157.377 Q 443.555 156.798 444.616 156.122 L 444.616 145.121 L 435.063 146.086 Q 431.106 146.376 429.031 147.775 Q 426.957 149.174 426.957 151.876 Q 426.957 154.675 429.176 156.315 Q 431.396 157.956 436.028 157.956 Z M 435.545 118.584 Q 445.002 118.584 450.599 122.588 Q 456.196 126.593 456.196 135.182 L 456.196 157.377 Q 456.196 159.693 455.086 161.044 Q 453.977 162.395 452.24 163.456 Q 449.538 165 445.388 166.013 Q 441.239 167.027 436.028 167.027 Q 426.378 167.027 420.877 163.311 Q 415.377 159.596 415.377 152.262 Q 415.377 145.797 419.478 142.371 Q 423.579 138.945 431.396 138.173 L 444.52 136.822 L 444.52 135.085 Q 444.52 131.225 441.866 129.488 Q 439.212 127.751 434.387 127.751 Q 430.624 127.751 427.053 128.716 Q 423.483 129.681 420.684 131.032 Q 419.719 130.26 418.947 128.909 Q 418.175 127.558 418.175 126.111 Q 418.175 122.637 422.035 120.996 Q 424.737 119.742 428.356 119.163 Q 431.975 118.584 435.545 118.584 Z M 491.768 128.137 Q 485.978 128.137 482.07 131.901 Q 478.162 135.664 478.162 142.902 Q 478.162 150.043 481.925 153.71 Q 485.689 157.377 491.672 157.377 Q 495.242 157.377 497.703 156.46 Q 500.164 155.543 501.997 154.482 Q 503.445 155.35 504.265 156.556 Q 505.085 157.763 505.085 159.5 Q 505.085 162.781 501.129 164.855 Q 497.172 166.93 490.707 166.93 Q 483.373 166.93 477.824 164.276 Q 472.275 161.623 469.139 156.219 Q 466.003 150.815 466.003 142.902 Q 466.003 134.699 469.332 129.295 Q 472.661 123.891 478.21 121.237 Q 483.759 118.584 490.417 118.584 Q 496.786 118.584 500.646 120.803 Q 504.506 123.023 504.506 126.304 Q 504.506 127.751 503.734 129.006 Q 502.962 130.26 501.901 131.032 Q 499.971 129.874 497.558 129.006 Q 495.146 128.137 491.768 128.137 Z M 515.052 140.103 L 526.922 140.103 L 526.922 151.49 Q 526.922 154.675 528.803 156.026 Q 530.685 157.377 534.159 157.377 Q 535.703 157.377 537.488 156.991 Q 539.274 156.605 540.528 156.026 Q 541.204 156.798 541.783 157.859 Q 542.362 158.921 542.362 160.465 Q 542.362 163.263 539.708 165.097 Q 537.054 166.93 531.457 166.93 Q 523.834 166.93 519.443 163.504 Q 515.052 160.079 515.052 152.359 Z M 522.29 130.26 L 522.29 120.9 L 541.204 120.9 Q 541.59 121.575 542.024 122.83 Q 542.458 124.084 542.458 125.435 Q 542.458 127.848 541.3 129.054 Q 540.142 130.26 538.309 130.26 Z M 526.922 142.709 L 515.052 142.709 L 515.052 107.969 Q 515.824 107.679 517.32 107.39 Q 518.816 107.1 520.456 107.1 Q 523.834 107.1 525.378 108.306 Q 526.922 109.513 526.922 112.601 Z M 551.433 106.328 Q 551.433 103.53 553.411 101.6 Q 555.389 99.67 558.381 99.67 Q 561.469 99.67 563.351 101.6 Q 565.232 103.53 565.232 106.328 Q 565.232 109.03 563.351 111.008 Q 561.469 112.987 558.381 112.987 Q 555.389 112.987 553.411 111.008 Q 551.433 109.03 551.433 106.328 Z M 552.398 140.103 L 564.364 140.103 L 564.364 165.386 Q 563.592 165.676 562.144 165.917 Q 560.697 166.158 558.96 166.158 Q 555.679 166.158 554.038 164.952 Q 552.398 163.746 552.398 160.658 Z M 564.364 146.183 L 552.398 146.183 L 552.398 120.321 Q 553.17 120.031 554.666 119.79 Q 556.161 119.549 557.898 119.549 Q 561.276 119.549 562.82 120.755 Q 564.364 121.961 564.364 125.146 Z M 621.942 142.709 Q 621.942 150.139 619.05 155.571 Q 616.157 161.004 610.889 163.967 Q 605.62 166.93 598.493 166.93 Q 591.37 166.93 586.053 163.987 Q 580.737 161.044 577.793 155.64 Q 574.85 150.236 574.85 142.709 Q 574.85 135.274 577.842 129.872 Q 580.833 124.47 586.141 121.527 Q 591.448 118.584 598.477 118.584 Q 605.506 118.584 610.778 121.564 Q 616.05 124.545 618.996 129.96 Q 621.942 135.375 621.942 142.709 Z M 598.431 128.041 Q 593.185 128.041 590.145 131.901 Q 587.106 135.761 587.106 142.709 Q 587.106 149.85 590.108 153.661 Q 593.111 157.473 598.493 157.473 Q 603.8 157.473 606.792 153.613 Q 609.783 149.753 609.783 142.709 Q 609.783 135.857 606.769 131.949 Q 603.755 128.041 598.431 128.041 Z M 674.228 135.761 L 674.228 145.121 L 662.358 145.121 L 662.358 136.243 Q 662.358 131.997 659.946 130.019 Q 657.533 128.041 653.48 128.041 Q 650.489 128.041 648.125 128.764 Q 645.76 129.488 643.927 130.453 L 643.927 145.121 L 632.057 145.121 L 632.057 129.681 Q 632.057 127.365 633.022 125.869 Q 633.987 124.374 635.917 123.119 Q 638.812 121.189 643.396 119.886 Q 647.98 118.584 653.577 118.584 Q 663.323 118.584 668.776 122.926 Q 674.228 127.269 674.228 135.761 Z M 632.057 140.393 L 643.927 140.393 L 643.927 165.386 Q 643.155 165.676 641.707 165.917 Q 640.26 166.158 638.523 166.158 Q 635.242 166.158 633.65 164.952 Q 632.057 163.746 632.057 160.658 Z M 662.358 140.393 L 674.228 140.393 L 674.228 165.386 Q 673.552 165.676 672.057 165.917 Q 670.561 166.158 668.92 166.158 Q 665.543 166.158 663.951 164.952 Q 662.358 163.746 662.358 160.658 Z" style="line-height: 191.825px; text-wrap-mode: nowrap;"/>
    </g>
  </g>
</svg>