<?xml version="1.0" encoding="utf-8"?>
<svg viewBox="0 0 1200 630" width="1200" height="630" xmlns="http://www.w3.org/2000/svg">
  <defs>
    <radialGradient id="gradient-1" gradientUnits="userSpaceOnUse" cx="152.286" cy="126.898" r="330" gradientTransform="matrix(0.638467, -1.091841, 1.097297, 0.641658, 471.383996, 1298.83688)">
      <stop offset="0" style="stop-color: rgb(0, 170, 237);"/>
      <stop offset="1" style="stop-color: rgb(0, 145, 202);"/>
    </radialGradient>
    <linearGradient id="gradient-0" gradientUnits="userSpaceOnUse" x1="330" y1="0" x2="330" y2="660" gradientTransform="matrix(0.980745, -0.195296, 0.195753, 0.983035, 359.993585, 1151.100552)">
      <stop offset="0" style="stop-color: rgb(152, 226, 255);"/>
      <stop offset="1" style="stop-color: rgb(78, 193, 239);"/>
    </linearGradient>
  </defs>
  <path d="M 0 0 H 1200 V 630 H 0 V 0 Z" style="fill: rgb(12, 74, 110);"/>
  <path d="M 1097.052 189.635 C 991.544 189.635 905.786 105.054 903.884 0 L 1047.67 0 C 1048.146 7.265 1050.269 14.628 1054.307 21.622 C 1063.196 37.018 1079.624 46.503 1097.403 46.503 C 1125.205 46.503 1145.44 24.662 1147.127 0 L 1200 0 L 1200 5.384 C 1181.582 10.647 1171.641 32.425 1181.962 50.303 C 1185.981 57.262 1192.493 62.266 1200 64.45 L 1200 159.95 C 1170.197 178.754 1134.894 189.635 1097.052 189.635 Z M 1119.165 72.884 C 1088.743 72.884 1069.73 105.816 1084.941 132.161 C 1092 144.388 1105.046 151.92 1119.165 151.92 C 1149.586 151.92 1168.598 118.989 1153.388 92.643 C 1146.33 80.416 1133.283 72.884 1119.165 72.884 Z M 1007.981 43.16 C 984.32 43.16 969.532 68.774 981.362 89.265 C 986.853 98.775 997 104.633 1007.981 104.633 C 1031.642 104.633 1046.43 79.019 1034.599 58.529 C 1029.109 49.019 1018.962 43.16 1007.981 43.16 Z" style="fill: rgb(7, 89, 133);"/>
  <path d="M 511.243 492.371 C 611.263 492.371 698.295 547.998 743.088 630 L 669.502 630 C 669.365 629.75 669.224 629.5 669.08 629.251 C 661.578 616.256 647.712 608.251 632.707 608.251 C 616.214 608.251 602.875 617.359 595.911 630 L 523.744 630 C 535.73 613.702 538.624 590.915 527.073 570.907 C 517.426 554.199 499.599 543.907 480.307 543.907 C 438.738 543.907 412.757 588.907 433.542 624.907 C 434.564 626.678 435.679 628.378 436.878 630 L 279.398 630 C 324.191 547.998 411.223 492.371 511.243 492.371 Z" style="fill: rgb(7, 89, 133);"/>
  <path d="M 358.544 299.77 C 359.108 299.77 359.594 300.005 360.001 300.475 C 360.408 300.944 360.612 301.492 360.612 302.119 C 360.612 303.498 359.547 304.845 357.418 306.16 C 352.905 308.855 348.142 310.202 343.13 310.202 C 336.175 310.202 330.691 308.103 326.68 303.906 C 322.67 299.708 320.665 293.942 320.665 286.61 C 320.665 281.911 321.559 277.76 323.344 274.158 C 325.13 270.553 327.637 267.765 330.863 265.791 C 334.09 263.817 337.803 262.829 342.001 262.829 C 347.892 262.829 352.544 264.725 355.96 268.517 C 359.375 272.308 361.083 277.525 361.083 284.167 C 361.083 285.296 360.832 286.126 360.331 286.658 C 359.83 287.191 359.015 287.457 357.887 287.457 L 326.587 287.457 C 326.775 293.222 328.278 297.608 331.098 300.615 C 333.918 303.623 337.897 305.127 343.037 305.127 C 345.731 305.127 347.987 304.767 349.804 304.046 C 351.62 303.326 353.563 302.37 355.63 301.179 C 357.009 300.239 357.98 299.77 358.544 299.77 Z M 342.001 267.53 C 337.615 267.53 334.106 268.909 331.474 271.667 C 328.843 274.423 327.277 278.277 326.775 283.227 L 355.818 283.227 C 355.693 278.215 354.44 274.345 352.06 271.618 C 349.678 268.893 346.325 267.53 342.001 267.53 Z M 391.064 262.829 C 396.578 262.829 400.699 264.271 403.425 267.154 C 406.151 270.037 407.513 274.392 407.513 280.219 L 407.513 307.008 C 407.513 307.885 407.263 308.59 406.761 309.122 C 406.26 309.655 405.57 309.921 404.693 309.921 C 403.816 309.921 403.127 309.655 402.627 309.122 C 402.125 308.59 401.875 307.885 401.875 307.008 L 401.875 301.367 C 400.558 304.186 398.646 306.364 396.141 307.899 C 393.634 309.434 390.751 310.202 387.494 310.202 C 384.549 310.202 381.854 309.607 379.411 308.417 C 376.965 307.227 375.038 305.566 373.628 303.435 C 372.218 301.304 371.513 298.954 371.513 296.385 C 371.513 293.002 372.391 290.37 374.146 288.49 C 375.901 286.611 378.815 285.264 382.888 284.448 C 386.96 283.634 392.63 283.227 399.899 283.227 L 401.875 283.227 L 401.875 279.75 C 401.875 275.613 401.028 272.589 399.335 270.678 C 397.644 268.767 394.981 267.811 391.347 267.811 C 386.709 267.811 382.292 269.034 378.094 271.479 C 377.906 271.604 377.42 271.933 376.637 272.465 C 375.853 272.998 375.18 273.264 374.617 273.264 C 373.99 273.264 373.473 273.029 373.064 272.558 C 372.657 272.089 372.453 271.51 372.453 270.819 C 372.453 269.441 373.55 268.094 375.743 266.778 C 377.937 265.524 380.382 264.553 383.076 263.865 C 385.77 263.174 388.433 262.829 391.064 262.829 Z M 387.963 305.22 C 392.036 305.22 395.373 303.842 397.972 301.086 C 400.574 298.328 401.875 294.819 401.875 290.558 L 401.875 287.457 L 400.087 287.457 C 394.072 287.457 389.466 287.707 386.27 288.209 C 383.075 288.71 380.819 289.572 379.503 290.793 C 378.188 292.015 377.53 293.786 377.53 296.104 C 377.53 298.736 378.532 300.914 380.537 302.636 C 382.542 304.359 385.018 305.22 387.963 305.22 Z M 437.213 310.202 C 434.582 310.202 431.998 309.842 429.46 309.122 C 426.922 308.401 424.682 307.414 422.74 306.16 C 421.548 305.346 420.718 304.641 420.249 304.046 C 419.778 303.451 419.543 302.778 419.543 302.026 C 419.543 301.399 419.747 300.866 420.154 300.427 C 420.561 299.989 421.046 299.77 421.611 299.77 C 422.175 299.77 423.146 300.239 424.525 301.179 C 426.342 302.37 428.206 303.342 430.117 304.094 C 432.028 304.845 434.425 305.22 437.309 305.22 C 441.006 305.22 443.888 304.547 445.956 303.201 C 448.023 301.853 449.057 299.926 449.057 297.42 C 449.057 295.916 448.681 294.678 447.929 293.706 C 447.177 292.736 445.923 291.89 444.168 291.169 C 442.415 290.449 439.908 289.744 436.649 289.054 C 431.073 287.8 427.11 286.187 424.759 284.214 C 422.41 282.241 421.235 279.593 421.235 276.272 C 421.235 272.261 422.802 269.018 425.934 266.543 C 429.068 264.067 433.141 262.829 438.154 262.829 C 440.597 262.829 442.932 263.143 445.157 263.769 C 447.381 264.396 449.308 265.305 450.937 266.497 C 453.13 268 454.227 269.472 454.227 270.915 C 454.227 271.541 454.023 272.089 453.616 272.558 C 453.208 273.029 452.722 273.264 452.159 273.264 C 451.532 273.264 450.561 272.762 449.245 271.76 C 447.554 270.57 445.877 269.614 444.217 268.893 C 442.556 268.172 440.442 267.811 437.873 267.811 C 434.613 267.811 432.013 268.548 430.071 270.021 C 428.128 271.493 427.157 273.482 427.157 275.989 C 427.157 277.43 427.486 278.621 428.144 279.562 C 428.801 280.501 429.929 281.331 431.526 282.053 C 433.125 282.772 435.427 283.477 438.435 284.167 C 442.758 285.17 446.08 286.235 448.398 287.362 C 450.718 288.49 452.378 289.837 453.38 291.403 C 454.382 292.971 454.884 294.977 454.884 297.42 C 454.884 301.243 453.27 304.329 450.044 306.678 C 446.817 309.027 442.54 310.202 437.213 310.202 Z M 499.906 264.71 C 500.408 263.581 501.222 263.017 502.348 263.017 C 503.039 263.017 503.666 263.268 504.229 263.769 C 504.794 264.271 505.076 264.867 505.076 265.557 C 505.076 265.995 504.982 266.402 504.793 266.778 L 478.192 325.147 C 477.692 326.213 476.878 326.746 475.75 326.746 C 475.06 326.746 474.449 326.527 473.916 326.087 C 473.384 325.649 473.117 325.085 473.117 324.395 C 473.117 324.019 473.211 323.643 473.398 323.269 L 480.072 308.7 L 460.805 266.778 C 460.616 266.402 460.522 266.026 460.522 265.65 C 460.522 264.898 460.851 264.255 461.508 263.723 C 462.168 263.191 462.873 262.924 463.625 262.924 C 464.815 262.924 465.629 263.489 466.067 264.617 L 482.986 302.59 L 499.906 264.71 Z" style="fill: rgb(245, 245, 245); line-height: 781.151px; white-space: pre;"/>
  <path d="M 550.849 242.81 C 552.289 242.81 553.449 243.217 554.326 244.031 C 555.204 244.846 555.642 245.944 555.642 247.322 L 555.642 305.408 C 555.642 306.851 555.219 307.979 554.372 308.793 C 553.527 309.607 552.384 310.014 550.941 310.014 C 549.501 310.014 548.357 309.607 547.51 308.793 C 546.665 307.979 546.243 306.851 546.243 305.408 L 546.243 301.65 C 544.864 304.406 542.858 306.521 540.226 307.994 C 537.595 309.466 534.556 310.202 531.11 310.202 C 527.162 310.202 523.637 309.2 520.536 307.196 C 517.434 305.19 515.022 302.37 513.298 298.736 C 511.575 295.101 510.714 290.934 510.714 286.234 C 510.714 281.472 511.575 277.305 513.298 273.733 C 515.022 270.161 517.419 267.404 520.489 265.462 C 523.56 263.52 527.1 262.548 531.11 262.548 C 534.556 262.548 537.58 263.285 540.179 264.758 C 542.781 266.23 544.77 268.313 546.148 271.008 L 546.148 247.134 C 546.148 245.817 546.571 244.767 547.418 243.984 C 548.264 243.201 549.408 242.81 550.849 242.81 Z M 533.366 302.683 C 537.44 302.683 540.604 301.273 542.858 298.453 C 545.115 295.634 546.243 291.623 546.243 286.422 C 546.243 281.222 545.13 277.212 542.905 274.392 C 540.681 271.572 537.501 270.162 533.366 270.162 C 529.229 270.162 526.017 271.556 523.73 274.343 C 521.444 277.132 520.301 281.095 520.301 286.234 C 520.301 291.373 521.461 295.399 523.779 298.312 C 526.097 301.226 529.293 302.683 533.366 302.683 Z M 573.686 310.014 C 572.309 310.014 571.165 309.638 570.255 308.888 C 569.347 308.136 568.892 307.008 568.892 305.503 L 568.892 267.342 C 568.892 265.838 569.347 264.694 570.255 263.911 C 571.165 263.128 572.309 262.736 573.686 262.736 C 575.065 262.736 576.193 263.128 577.071 263.911 C 577.948 264.694 578.387 265.838 578.387 267.342 L 578.387 305.503 C 578.387 307.008 577.948 308.136 577.071 308.888 C 576.193 309.638 575.065 310.014 573.686 310.014 Z M 573.686 253.525 C 571.869 253.525 570.428 253.024 569.364 252.021 C 568.297 251.018 567.764 249.703 567.764 248.074 C 567.764 246.445 568.297 245.144 569.364 244.172 C 570.428 243.202 571.869 242.717 573.686 242.717 C 575.441 242.717 576.867 243.202 577.964 244.172 C 579.06 245.144 579.608 246.445 579.608 248.074 C 579.608 249.703 579.076 251.018 578.011 252.021 C 576.944 253.024 575.503 253.525 573.686 253.525 Z M 613.257 250.517 C 610.123 250.767 607.805 251.755 606.302 253.479 C 604.798 255.201 604.046 257.723 604.046 261.044 L 604.046 263.677 L 613.35 263.677 C 614.667 263.677 615.685 264.006 616.405 264.663 C 617.126 265.321 617.487 266.214 617.487 267.342 C 617.487 268.47 617.126 269.363 616.405 270.021 C 615.685 270.679 614.667 271.008 613.35 271.008 L 604.046 271.008 L 604.046 305.408 C 604.046 306.912 603.592 308.056 602.683 308.839 C 601.775 309.622 600.631 310.014 599.252 310.014 C 597.873 310.014 596.745 309.622 595.868 308.839 C 594.99 308.056 594.551 306.912 594.551 305.408 L 594.551 271.008 L 588.913 271.008 C 587.597 271.008 586.579 270.679 585.858 270.021 C 585.138 269.363 584.778 268.47 584.778 267.342 C 584.778 266.214 585.138 265.321 585.858 264.663 C 586.579 264.006 587.597 263.677 588.913 263.677 L 594.551 263.677 L 594.551 262.455 C 594.551 256.689 596.025 252.162 598.971 248.873 C 601.916 245.583 606.083 243.75 611.472 243.374 L 613.914 243.186 C 615.92 243.06 617.377 243.279 618.285 243.843 C 619.194 244.407 619.648 245.317 619.648 246.57 C 619.648 248.763 618.332 250.016 615.701 250.329 L 613.257 250.517 Z M 645.026 250.517 C 641.892 250.767 639.574 251.755 638.071 253.479 C 636.566 255.201 635.814 257.723 635.814 261.044 L 635.814 263.677 L 645.118 263.677 C 646.436 263.677 647.454 264.006 648.173 264.663 C 648.895 265.321 649.255 266.214 649.255 267.342 C 649.255 268.47 648.895 269.363 648.173 270.021 C 647.454 270.679 646.436 271.008 645.118 271.008 L 635.814 271.008 L 635.814 305.408 C 635.814 306.912 635.36 308.056 634.452 308.839 C 633.543 309.622 632.4 310.014 631.021 310.014 C 629.642 310.014 628.514 309.622 627.636 308.839 C 626.759 308.056 626.32 306.912 626.32 305.408 L 626.32 271.008 L 620.681 271.008 C 619.366 271.008 618.347 270.679 617.626 270.021 C 616.907 269.363 616.547 268.47 616.547 267.342 C 616.547 266.214 616.907 265.321 617.626 264.663 C 618.347 264.006 619.366 263.677 620.681 263.677 L 626.32 263.677 L 626.32 262.455 C 626.32 256.689 627.793 252.162 630.74 248.873 C 633.685 245.583 637.852 243.75 643.24 243.374 L 645.683 243.186 C 647.688 243.06 649.145 243.279 650.054 243.843 C 650.962 244.407 651.416 245.317 651.416 246.57 C 651.416 248.763 650.101 250.016 647.47 250.329 L 645.026 250.517 Z M 679.615 262.736 C 682.622 262.549 684.125 263.834 684.125 266.59 C 684.125 267.969 683.781 269.003 683.092 269.691 C 682.402 270.381 681.211 270.789 679.52 270.915 L 676.701 271.196 C 672.753 271.572 669.824 272.95 667.913 275.332 C 666.001 277.712 665.046 280.595 665.046 283.979 L 665.046 305.503 C 665.046 307.008 664.607 308.136 663.729 308.888 C 662.852 309.638 661.724 310.014 660.345 310.014 C 658.967 310.014 657.824 309.638 656.914 308.888 C 656.005 308.136 655.551 307.008 655.551 305.503 L 655.551 267.247 C 655.551 265.806 656.005 264.694 656.914 263.911 C 657.824 263.128 658.967 262.736 660.345 262.736 C 661.598 262.736 662.648 263.128 663.495 263.911 C 664.34 264.694 664.763 265.775 664.763 267.154 L 664.763 271.667 C 666.016 268.909 667.834 266.81 670.215 265.369 C 672.596 263.927 675.29 263.08 678.298 262.829 L 679.615 262.736 Z M 708.939 262.548 C 715.017 262.548 719.544 264.084 722.522 267.154 C 725.498 270.224 726.986 274.893 726.986 281.159 L 726.986 305.503 C 726.986 306.944 726.578 308.056 725.762 308.839 C 724.948 309.622 723.821 310.014 722.38 310.014 C 721.001 310.014 719.905 309.607 719.091 308.793 C 718.275 307.979 717.867 306.882 717.867 305.503 L 717.867 302.026 C 716.677 304.657 714.908 306.677 712.558 308.087 C 710.208 309.497 707.466 310.202 704.334 310.202 C 701.325 310.202 698.568 309.591 696.062 308.37 C 693.555 307.148 691.597 305.44 690.187 303.247 C 688.777 301.054 688.072 298.61 688.072 295.916 C 688.072 292.595 688.934 289.979 690.656 288.067 C 692.38 286.156 695.232 284.793 699.21 283.979 C 703.189 283.164 708.657 282.756 715.613 282.756 L 717.774 282.756 L 717.774 280.031 C 717.774 276.522 717.054 273.984 715.613 272.417 C 714.171 270.85 711.852 270.067 708.656 270.067 C 706.463 270.067 704.396 270.35 702.453 270.915 C 700.511 271.478 698.381 272.292 696.062 273.357 C 694.37 274.298 693.179 274.768 692.49 274.768 C 691.551 274.768 690.783 274.423 690.187 273.733 C 689.591 273.044 689.293 272.167 689.293 271.103 C 689.293 270.162 689.56 269.331 690.094 268.612 C 690.627 267.891 691.488 267.186 692.678 266.497 C 694.871 265.305 697.44 264.35 700.385 263.63 C 703.33 262.909 706.182 262.548 708.939 262.548 Z M 706.026 303.154 C 709.472 303.154 712.292 301.979 714.485 299.628 C 716.678 297.279 717.774 294.255 717.774 290.558 L 717.774 288.114 L 716.082 288.114 C 711.195 288.114 707.435 288.334 704.803 288.773 C 702.172 289.211 700.292 289.947 699.164 290.981 C 698.036 292.014 697.472 293.503 697.472 295.447 C 697.472 297.702 698.287 299.55 699.916 300.991 C 701.544 302.433 703.581 303.154 706.026 303.154 Z M 759.6 310.202 C 755.151 310.202 751.25 309.231 747.898 307.289 C 744.544 305.346 741.944 302.589 740.096 299.017 C 738.248 295.445 737.324 291.31 737.324 286.61 C 737.324 281.848 738.28 277.65 740.191 274.016 C 742.101 270.381 744.779 267.561 748.225 265.557 C 751.672 263.551 755.62 262.548 760.069 262.548 C 762.451 262.548 764.848 262.893 767.261 263.581 C 769.673 264.272 771.819 265.212 773.698 266.402 C 775.703 267.781 776.706 269.379 776.706 271.196 C 776.706 272.26 776.424 273.153 775.859 273.874 C 775.296 274.596 774.575 274.956 773.698 274.956 C 773.135 274.956 772.57 274.815 772.006 274.531 C 771.442 274.25 770.722 273.827 769.844 273.264 C 768.278 272.261 766.821 271.494 765.473 270.961 C 764.127 270.429 762.513 270.162 760.633 270.162 C 756.373 270.162 753.067 271.603 750.716 274.485 C 748.367 277.368 747.192 281.379 747.192 286.517 C 747.192 291.655 748.351 295.618 750.67 298.407 C 752.988 301.196 756.278 302.59 760.54 302.59 C 762.419 302.59 764.08 302.307 765.522 301.743 C 766.963 301.179 768.435 300.428 769.94 299.489 C 770.628 299.049 771.317 298.673 772.006 298.36 C 772.696 298.046 773.323 297.889 773.886 297.889 C 774.763 297.889 775.484 298.25 776.047 298.971 C 776.612 299.692 776.894 300.585 776.894 301.65 C 776.894 302.527 776.659 303.326 776.189 304.046 C 775.72 304.767 774.921 305.503 773.793 306.255 C 771.913 307.509 769.719 308.48 767.212 309.169 C 764.706 309.857 762.169 310.202 759.6 310.202 Z M 808.003 302.778 C 809.382 302.903 810.37 303.263 810.966 303.858 C 811.561 304.453 811.859 305.284 811.859 306.348 C 811.859 307.602 811.373 308.558 810.401 309.215 C 809.429 309.873 808.004 310.139 806.125 310.014 L 803.586 309.826 C 798.511 309.451 794.72 307.901 792.213 305.174 C 789.706 302.448 788.453 298.422 788.453 293.096 L 788.453 271.008 L 782.814 271.008 C 780.058 271.008 778.68 269.786 778.68 267.342 C 778.68 266.214 779.039 265.321 779.759 264.663 C 780.48 264.006 781.499 263.677 782.814 263.677 L 788.453 263.677 L 788.453 253.994 C 788.453 252.553 788.876 251.426 789.723 250.612 C 790.569 249.796 791.713 249.388 793.154 249.388 C 794.594 249.388 795.753 249.796 796.631 250.612 C 797.508 251.426 797.947 252.553 797.947 253.994 L 797.947 263.677 L 807.251 263.677 C 808.568 263.677 809.586 264.006 810.306 264.663 C 811.027 265.321 811.388 266.214 811.388 267.342 C 811.388 268.532 811.027 269.441 810.306 270.067 C 809.586 270.694 808.568 271.008 807.251 271.008 L 797.947 271.008 L 797.947 293.755 C 797.947 296.7 798.558 298.861 799.781 300.238 C 801.002 301.617 802.866 302.401 805.373 302.59 L 808.003 302.778 Z M 823.511 310.014 C 822.134 310.014 820.99 309.638 820.08 308.888 C 819.172 308.136 818.718 307.008 818.718 305.503 L 818.718 267.342 C 818.718 265.838 819.172 264.694 820.08 263.911 C 820.99 263.128 822.134 262.736 823.511 262.736 C 824.89 262.736 826.019 263.128 826.896 263.911 C 827.773 264.694 828.212 265.838 828.212 267.342 L 828.212 305.503 C 828.212 307.008 827.773 308.136 826.896 308.888 C 826.019 309.638 824.89 310.014 823.511 310.014 Z M 823.511 253.525 C 821.695 253.525 820.254 253.024 819.189 252.021 C 818.123 251.018 817.589 249.703 817.589 248.074 C 817.589 246.445 818.123 245.144 819.189 244.172 C 820.254 243.202 821.695 242.717 823.511 242.717 C 825.266 242.717 826.692 243.202 827.79 244.172 C 828.885 245.144 829.433 246.445 829.433 248.074 C 829.433 249.703 828.901 251.018 827.836 252.021 C 826.77 253.024 825.328 253.525 823.511 253.525 Z M 861.39 310.202 C 856.879 310.202 852.915 309.231 849.5 307.289 C 846.084 305.346 843.453 302.574 841.605 298.971 C 839.757 295.368 838.833 291.185 838.833 286.422 C 838.833 281.598 839.757 277.384 841.605 273.782 C 843.453 270.177 846.084 267.404 849.5 265.462 C 852.915 263.52 856.879 262.548 861.39 262.548 C 865.902 262.548 869.865 263.52 873.28 265.462 C 876.696 267.404 879.328 270.177 881.175 273.782 C 883.025 277.384 883.949 281.598 883.949 286.422 C 883.949 291.185 883.025 295.368 881.175 298.971 C 879.328 302.574 876.696 305.346 873.28 307.289 C 869.865 309.231 865.902 310.202 861.39 310.202 Z M 861.39 302.683 C 865.589 302.683 868.8 301.305 871.024 298.548 C 873.249 295.791 874.362 291.748 874.362 286.422 C 874.362 281.158 873.234 277.132 870.977 274.343 C 868.723 271.556 865.527 270.162 861.39 270.162 C 857.255 270.162 854.059 271.556 851.803 274.343 C 849.548 277.132 848.42 281.158 848.42 286.422 C 848.42 291.748 849.533 295.791 851.756 298.548 C 853.98 301.305 857.192 302.683 861.39 302.683 Z M 919.194 262.548 C 930.16 262.548 935.643 268.721 935.643 281.066 L 935.643 305.503 C 935.643 306.944 935.22 308.056 934.374 308.839 C 933.529 309.622 932.354 310.014 930.85 310.014 C 929.409 310.014 928.265 309.607 927.419 308.793 C 926.572 307.979 926.149 306.882 926.149 305.503 L 926.149 281.535 C 926.149 277.651 925.381 274.799 923.846 272.981 C 922.311 271.164 919.915 270.255 916.657 270.255 C 912.834 270.255 909.764 271.446 907.446 273.828 C 905.127 276.208 903.968 279.404 903.968 283.415 L 903.968 305.503 C 903.968 306.882 903.545 307.979 902.698 308.793 C 901.853 309.607 900.71 310.014 899.267 310.014 C 897.827 310.014 896.667 309.607 895.79 308.793 C 894.912 307.979 894.474 306.882 894.474 305.503 L 894.474 267.247 C 894.474 265.931 894.928 264.851 895.836 264.006 C 896.746 263.16 897.89 262.736 899.267 262.736 C 900.646 262.736 901.743 263.143 902.557 263.958 C 903.372 264.773 903.78 265.838 903.78 267.154 L 903.78 271.008 C 905.284 268.251 907.384 266.152 910.078 264.71 C 912.772 263.269 915.811 262.548 919.194 262.548 Z" style="fill: rgb(245, 245, 245); line-height: 781.151px; white-space: pre;"/>
  <path d="M 346.379 351.611 C 346.785 351.611 347.1 351.734 347.324 351.98 C 347.548 352.225 347.66 352.55 347.66 352.956 L 347.66 373.219 C 347.66 373.602 347.553 373.911 347.339 374.145 C 347.127 374.38 346.828 374.497 346.443 374.497 C 346.06 374.497 345.772 374.38 345.578 374.145 C 345.387 373.911 345.291 373.602 345.291 373.219 L 345.291 356.86 L 338.345 370.177 C 338.047 370.796 337.61 371.106 337.033 371.106 C 336.478 371.106 336.041 370.796 335.721 370.177 L 328.742 357.021 L 328.742 373.219 C 328.742 373.602 328.641 373.911 328.439 374.145 C 328.235 374.38 327.942 374.497 327.558 374.497 C 327.174 374.497 326.875 374.38 326.663 374.145 C 326.449 373.911 326.342 373.602 326.342 373.219 L 326.342 352.956 C 326.342 352.55 326.459 352.225 326.694 351.98 C 326.928 351.734 327.248 351.611 327.654 351.611 C 328.187 351.611 328.614 351.92 328.934 352.54 L 337.064 368.128 L 345.098 352.54 C 345.269 352.197 345.457 351.957 345.66 351.818 C 345.862 351.68 346.102 351.611 346.379 351.611 Z M 359.244 358.364 C 363.149 358.364 365.102 360.413 365.102 364.512 L 365.102 373.219 C 365.102 373.602 364.99 373.911 364.765 374.145 C 364.541 374.38 364.237 374.497 363.852 374.497 C 363.468 374.497 363.159 374.38 362.925 374.145 C 362.69 373.911 362.573 373.602 362.573 373.219 L 362.573 371.681 C 362.168 372.598 361.548 373.308 360.715 373.809 C 359.883 374.311 358.923 374.561 357.835 374.561 C 356.832 374.561 355.909 374.358 355.065 373.953 C 354.223 373.547 353.557 372.982 353.066 372.256 C 352.574 371.531 352.329 370.731 352.329 369.856 C 352.329 368.682 352.628 367.77 353.225 367.12 C 353.824 366.469 354.806 366 356.171 365.711 C 357.537 365.423 359.436 365.279 361.868 365.279 L 362.573 365.279 L 362.573 364.222 C 362.573 362.942 362.312 362.003 361.788 361.406 C 361.266 360.809 360.418 360.51 359.244 360.51 C 357.793 360.51 356.32 360.904 354.826 361.693 C 354.25 362.056 353.844 362.238 353.61 362.238 C 353.353 362.238 353.14 362.142 352.97 361.95 C 352.799 361.758 352.714 361.513 352.714 361.213 C 352.714 360.915 352.804 360.654 352.986 360.43 C 353.167 360.206 353.461 359.977 353.866 359.742 C 354.612 359.315 355.461 358.978 356.41 358.734 C 357.36 358.487 358.304 358.364 359.244 358.364 Z M 358.187 372.513 C 359.467 372.513 360.518 372.081 361.341 371.217 C 362.162 370.352 362.573 369.237 362.573 367.872 L 362.573 366.943 L 361.996 366.943 C 360.118 366.943 358.689 367.023 357.707 367.184 C 356.726 367.343 356.027 367.61 355.609 367.985 C 355.194 368.358 354.986 368.907 354.986 369.633 C 354.986 370.464 355.29 371.152 355.899 371.697 C 356.507 372.241 357.269 372.513 358.187 372.513 Z M 382.288 372.289 C 382.63 372.61 382.801 372.951 382.801 373.314 C 382.801 373.634 382.689 373.911 382.465 374.145 C 382.241 374.38 381.968 374.497 381.649 374.497 C 381.371 374.497 381.083 374.369 380.784 374.114 L 372.428 366.912 L 372.428 373.219 C 372.428 373.623 372.306 373.937 372.061 374.161 C 371.816 374.385 371.513 374.497 371.15 374.497 C 370.765 374.497 370.45 374.385 370.205 374.161 C 369.959 373.937 369.836 373.623 369.836 373.219 L 369.836 352.891 C 369.836 352.486 369.959 352.171 370.205 351.947 C 370.45 351.723 370.765 351.611 371.15 351.611 C 371.513 351.611 371.816 351.723 372.061 351.947 C 372.306 352.171 372.428 352.486 372.428 352.891 L 372.428 365.888 L 380.08 358.877 C 380.335 358.621 380.623 358.492 380.943 358.492 C 381.263 358.492 381.541 358.61 381.777 358.846 C 382.011 359.081 382.129 359.358 382.129 359.678 C 382.129 360.041 381.979 360.361 381.68 360.638 L 375.375 366.272 L 382.288 372.289 Z M 387.152 374.497 C 386.767 374.497 386.452 374.385 386.208 374.161 C 385.961 373.937 385.838 373.623 385.838 373.219 L 385.838 359.709 C 385.838 359.304 385.961 358.989 386.208 358.765 C 386.452 358.54 386.767 358.428 387.152 358.428 C 387.536 358.428 387.845 358.54 388.079 358.765 C 388.314 358.989 388.431 359.304 388.431 359.709 L 388.431 373.219 C 388.431 373.645 388.314 373.965 388.079 374.179 C 387.845 374.391 387.536 374.497 387.152 374.497 Z M 387.152 355.068 C 386.639 355.068 386.222 354.918 385.902 354.619 C 385.582 354.321 385.422 353.927 385.422 353.436 C 385.422 352.967 385.582 352.582 385.902 352.283 C 386.222 351.985 386.639 351.836 387.152 351.836 C 387.664 351.836 388.08 351.985 388.4 352.283 C 388.72 352.582 388.88 352.967 388.88 353.436 C 388.88 353.927 388.72 354.321 388.4 354.619 C 388.08 354.918 387.664 355.068 387.152 355.068 Z M 401.105 358.364 C 404.841 358.364 406.709 360.424 406.709 364.543 L 406.709 373.219 C 406.709 373.623 406.597 373.937 406.372 374.161 C 406.148 374.385 405.833 374.497 405.428 374.497 C 405.022 374.497 404.702 374.385 404.468 374.161 C 404.233 373.937 404.116 373.623 404.116 373.219 L 404.116 364.704 C 404.116 363.253 403.833 362.196 403.266 361.534 C 402.702 360.872 401.8 360.541 400.561 360.541 C 399.132 360.541 397.991 360.979 397.137 361.855 C 396.283 362.729 395.856 363.914 395.856 365.408 L 395.856 373.219 C 395.856 373.623 395.744 373.937 395.52 374.161 C 395.296 374.385 394.981 374.497 394.577 374.497 C 394.172 374.497 393.851 374.385 393.615 374.161 C 393.381 373.937 393.263 373.623 393.263 373.219 L 393.263 359.709 C 393.263 359.326 393.381 359.017 393.615 358.782 C 393.851 358.546 394.172 358.428 394.577 358.428 C 394.961 358.428 395.265 358.546 395.489 358.782 C 395.713 359.017 395.825 359.315 395.825 359.678 L 395.825 361.311 C 396.337 360.351 397.051 359.62 397.968 359.118 C 398.887 358.616 399.933 358.364 401.105 358.364 Z M 424.087 358.428 C 424.492 358.428 424.812 358.546 425.047 358.782 C 425.281 359.017 425.399 359.326 425.399 359.709 L 425.399 373.28 C 425.399 375.608 424.801 377.363 423.607 378.548 C 422.412 379.732 420.641 380.324 418.293 380.324 C 416.01 380.324 414.111 379.875 412.595 378.979 C 411.826 378.553 411.442 378.062 411.442 377.508 C 411.442 377.209 411.523 376.963 411.683 376.771 C 411.843 376.578 412.051 376.481 412.307 376.481 C 412.521 376.481 412.905 376.631 413.46 376.93 C 414.206 377.315 414.942 377.625 415.667 377.86 C 416.393 378.094 417.257 378.211 418.26 378.211 C 419.776 378.211 420.918 377.811 421.687 377.01 C 422.455 376.211 422.839 375.043 422.839 373.506 L 422.839 370.752 C 422.391 371.755 421.702 372.523 420.773 373.057 C 419.845 373.591 418.752 373.858 417.492 373.858 C 416.127 373.858 414.916 373.538 413.86 372.898 C 412.803 372.258 411.981 371.351 411.396 370.177 C 410.809 369.003 410.515 367.648 410.515 366.111 C 410.515 364.574 410.809 363.22 411.396 362.047 C 411.981 360.873 412.803 359.966 413.86 359.326 C 414.916 358.685 416.127 358.364 417.492 358.364 C 418.73 358.364 419.808 358.631 420.727 359.165 C 421.644 359.699 422.337 360.457 422.806 361.439 L 422.806 359.709 C 422.806 359.326 422.918 359.017 423.142 358.782 C 423.366 358.546 423.681 358.428 424.087 358.428 Z M 418.006 371.712 C 419.498 371.712 420.671 371.217 421.525 370.226 C 422.379 369.233 422.806 367.861 422.806 366.111 C 422.806 364.383 422.385 363.022 421.543 362.03 C 420.699 361.037 419.52 360.541 418.006 360.541 C 416.489 360.541 415.299 361.037 414.435 362.03 C 413.571 363.022 413.139 364.383 413.139 366.111 C 413.139 367.861 413.571 369.233 414.435 370.226 C 415.299 371.217 416.489 371.712 418.006 371.712 Z M 450.971 351.611 C 451.376 351.611 451.696 351.728 451.931 351.962 C 452.165 352.198 452.282 352.498 452.282 352.86 L 452.282 373.219 C 452.282 373.602 452.165 373.911 451.931 374.145 C 451.696 374.38 451.376 374.497 450.971 374.497 C 450.565 374.497 450.25 374.38 450.026 374.145 C 449.802 373.911 449.69 373.602 449.69 373.219 L 449.69 371.489 C 449.221 372.471 448.533 373.229 447.626 373.763 C 446.719 374.295 445.657 374.561 444.44 374.561 C 443.075 374.561 441.869 374.22 440.824 373.537 C 439.778 372.854 438.967 371.899 438.39 370.672 C 437.815 369.445 437.528 368.021 437.528 366.399 C 437.528 364.799 437.815 363.39 438.39 362.173 C 438.967 360.958 439.778 360.019 440.824 359.357 C 441.869 358.695 443.075 358.364 444.44 358.364 C 445.657 358.364 446.719 358.631 447.626 359.165 C 448.533 359.699 449.221 360.457 449.69 361.439 L 449.69 352.86 C 449.69 352.475 449.802 352.171 450.026 351.947 C 450.25 351.723 450.565 351.611 450.971 351.611 Z M 444.954 372.418 C 446.468 372.418 447.636 371.9 448.458 370.865 C 449.279 369.83 449.69 368.362 449.69 366.463 C 449.69 364.565 449.279 363.103 448.458 362.078 C 447.636 361.053 446.468 360.541 444.954 360.541 C 443.438 360.541 442.259 361.053 441.416 362.078 C 440.573 363.103 440.151 364.543 440.151 366.399 C 440.151 368.298 440.573 369.776 441.416 370.834 C 442.259 371.89 443.438 372.418 444.954 372.418 Z M 458.395 374.497 C 458.01 374.497 457.695 374.385 457.451 374.161 C 457.204 373.937 457.081 373.623 457.081 373.219 L 457.081 359.709 C 457.081 359.304 457.204 358.989 457.451 358.765 C 457.695 358.54 458.01 358.428 458.395 358.428 C 458.779 358.428 459.088 358.54 459.322 358.765 C 459.557 358.989 459.674 359.304 459.674 359.709 L 459.674 373.219 C 459.674 373.645 459.557 373.965 459.322 374.179 C 459.088 374.391 458.779 374.497 458.395 374.497 Z M 458.395 355.068 C 457.882 355.068 457.465 354.918 457.146 354.619 C 456.825 354.321 456.666 353.927 456.666 353.436 C 456.666 352.967 456.825 352.582 457.146 352.283 C 457.465 351.985 457.882 351.836 458.395 351.836 C 458.907 351.836 459.323 351.985 459.643 352.283 C 459.963 352.582 460.123 352.967 460.123 353.436 C 460.123 353.927 459.963 354.321 459.643 354.619 C 459.323 354.918 458.907 355.068 458.395 355.068 Z M 471.389 353.82 C 470.257 353.906 469.404 354.263 468.829 354.891 C 468.252 355.521 467.964 356.465 467.964 357.725 L 467.964 358.749 L 471.517 358.749 C 471.88 358.749 472.157 358.845 472.349 359.037 C 472.542 359.23 472.638 359.486 472.638 359.806 C 472.638 360.127 472.542 360.371 472.349 360.541 C 472.157 360.712 471.88 360.797 471.517 360.797 L 467.964 360.797 L 467.964 373.219 C 467.964 373.623 467.842 373.937 467.597 374.161 C 467.351 374.385 467.046 374.497 466.683 374.497 C 466.3 374.497 465.985 374.385 465.739 374.161 C 465.494 373.937 465.372 373.623 465.372 373.219 L 465.372 360.797 L 463.226 360.797 C 462.863 360.797 462.581 360.707 462.379 360.525 C 462.176 360.344 462.075 360.104 462.075 359.806 C 462.075 359.486 462.176 359.23 462.379 359.037 C 462.581 358.845 462.863 358.749 463.226 358.749 L 465.372 358.749 L 465.372 358.174 C 465.372 356.252 465.852 354.742 466.812 353.643 C 467.772 352.545 469.148 351.931 470.942 351.803 L 471.773 351.739 C 472.328 351.696 472.728 351.75 472.975 351.9 C 473.219 352.049 473.342 352.316 473.342 352.699 C 473.342 353.318 472.969 353.671 472.222 353.756 L 471.389 353.82 Z M 481.886 353.82 C 480.755 353.906 479.902 354.263 479.327 354.891 C 478.75 355.521 478.462 356.465 478.462 357.725 L 478.462 358.749 L 482.014 358.749 C 482.377 358.749 482.654 358.845 482.846 359.037 C 483.039 359.23 483.136 359.486 483.136 359.806 C 483.136 360.127 483.039 360.371 482.846 360.541 C 482.654 360.712 482.377 360.797 482.014 360.797 L 478.462 360.797 L 478.462 373.219 C 478.462 373.623 478.339 373.937 478.095 374.161 C 477.848 374.385 477.544 374.497 477.181 374.497 C 476.797 374.497 476.483 374.385 476.236 374.161 C 475.991 373.937 475.869 373.623 475.869 373.219 L 475.869 360.797 L 473.723 360.797 C 473.361 360.797 473.078 360.707 472.876 360.525 C 472.674 360.344 472.573 360.104 472.573 359.806 C 472.573 359.486 472.674 359.23 472.876 359.037 C 473.078 358.845 473.361 358.749 473.723 358.749 L 475.869 358.749 L 475.869 358.174 C 475.869 356.252 476.349 354.742 477.309 353.643 C 478.269 352.545 479.646 351.931 481.439 351.803 L 482.271 351.739 C 482.825 351.696 483.226 351.75 483.472 351.9 C 483.717 352.049 483.839 352.316 483.839 352.699 C 483.839 353.318 483.466 353.671 482.72 353.756 L 481.886 353.82 Z M 493.218 358.428 C 494.113 358.365 494.56 358.728 494.56 359.517 C 494.56 359.859 494.464 360.131 494.273 360.333 C 494.081 360.536 493.75 360.66 493.28 360.702 L 492.32 360.797 C 490.891 360.926 489.829 361.433 489.136 362.319 C 488.442 363.204 488.094 364.244 488.094 365.439 L 488.094 373.219 C 488.094 373.645 487.977 373.965 487.743 374.179 C 487.508 374.391 487.199 374.497 486.816 374.497 C 486.431 374.497 486.116 374.385 485.871 374.161 C 485.625 373.937 485.502 373.623 485.502 373.219 L 485.502 359.709 C 485.502 359.304 485.63 358.989 485.887 358.765 C 486.143 358.54 486.453 358.428 486.816 358.428 C 487.156 358.428 487.444 358.54 487.679 358.765 C 487.913 358.989 488.03 359.293 488.03 359.678 L 488.03 361.47 C 488.478 360.53 489.113 359.816 489.935 359.326 C 490.756 358.835 491.701 358.547 492.769 358.461 L 493.218 358.428 Z M 503.042 358.364 C 506.947 358.364 508.9 360.413 508.9 364.512 L 508.9 373.219 C 508.9 373.602 508.788 373.911 508.564 374.145 C 508.34 374.38 508.035 374.497 507.65 374.497 C 507.267 374.497 506.958 374.38 506.723 374.145 C 506.489 373.911 506.372 373.602 506.372 373.219 L 506.372 371.681 C 505.966 372.598 505.347 373.308 504.513 373.809 C 503.682 374.311 502.722 374.561 501.633 374.561 C 500.631 374.561 499.707 374.358 498.864 373.953 C 498.022 373.547 497.355 372.982 496.864 372.256 C 496.373 371.531 496.127 370.731 496.127 369.856 C 496.127 368.682 496.426 367.77 497.023 367.12 C 497.622 366.469 498.604 366 499.97 365.711 C 501.335 365.423 503.234 365.279 505.666 365.279 L 506.372 365.279 L 506.372 364.222 C 506.372 362.942 506.11 362.003 505.586 361.406 C 505.064 360.809 504.216 360.51 503.042 360.51 C 501.591 360.51 500.119 360.904 498.625 361.693 C 498.048 362.056 497.643 362.238 497.408 362.238 C 497.152 362.238 496.938 362.142 496.769 361.95 C 496.598 361.758 496.512 361.513 496.512 361.213 C 496.512 360.915 496.603 360.654 496.784 360.43 C 496.966 360.206 497.259 359.977 497.665 359.742 C 498.411 359.315 499.259 358.978 500.209 358.734 C 501.158 358.487 502.103 358.364 503.042 358.364 Z M 501.985 372.513 C 503.265 372.513 504.317 372.081 505.139 371.217 C 505.961 370.352 506.372 369.237 506.372 367.872 L 506.372 366.943 L 505.794 366.943 C 503.917 366.943 502.487 367.023 501.505 367.184 C 500.524 367.343 499.825 367.61 499.408 367.985 C 498.992 368.358 498.784 368.907 498.784 369.633 C 498.784 370.464 499.089 371.152 499.698 371.697 C 500.305 372.241 501.068 372.513 501.985 372.513 Z M 520.069 374.561 C 518.618 374.561 517.332 374.231 516.211 373.57 C 515.09 372.908 514.226 371.969 513.619 370.752 C 513.011 369.537 512.707 368.128 512.707 366.527 C 512.707 364.927 513.021 363.508 513.65 362.271 C 514.279 361.034 515.16 360.073 516.291 359.391 C 517.422 358.706 518.724 358.364 520.198 358.364 C 521.007 358.364 521.812 358.476 522.613 358.7 C 523.414 358.924 524.113 359.251 524.71 359.678 C 525.094 359.933 525.366 360.184 525.527 360.43 C 525.686 360.675 525.766 360.947 525.766 361.247 C 525.766 361.545 525.686 361.79 525.527 361.983 C 525.366 362.175 525.158 362.271 524.903 362.271 C 524.752 362.271 524.592 362.228 524.423 362.142 C 524.252 362.057 524.107 361.971 523.989 361.886 C 523.873 361.8 523.793 361.747 523.75 361.727 C 523.196 361.364 522.668 361.076 522.166 360.862 C 521.663 360.648 521.049 360.541 520.324 360.541 C 518.766 360.541 517.555 361.07 516.691 362.127 C 515.827 363.183 515.395 364.649 515.395 366.527 C 515.395 368.406 515.827 369.857 516.691 370.88 C 517.555 371.905 518.766 372.418 520.324 372.418 C 521.049 372.418 521.674 372.311 522.197 372.097 C 522.719 371.883 523.247 371.595 523.781 371.232 C 524.016 371.083 524.24 370.956 524.454 370.849 C 524.667 370.742 524.849 370.688 524.998 370.688 C 525.232 370.688 525.43 370.785 525.591 370.978 C 525.75 371.169 525.83 371.414 525.83 371.712 C 525.83 371.991 525.755 372.242 525.606 372.466 C 525.457 372.689 525.18 372.94 524.774 373.219 C 524.177 373.623 523.457 373.948 522.613 374.194 C 521.771 374.439 520.923 374.561 520.069 374.561 Z M 536.199 372.449 C 536.945 372.514 537.319 372.855 537.319 373.473 C 537.319 373.836 537.186 374.108 536.92 374.289 C 536.653 374.471 536.253 374.54 535.719 374.497 L 534.854 374.433 C 533.148 374.306 531.889 373.794 531.078 372.898 C 530.267 372.001 529.861 370.646 529.861 368.832 L 529.861 360.797 L 527.716 360.797 C 527.353 360.797 527.07 360.707 526.868 360.525 C 526.667 360.344 526.565 360.104 526.565 359.806 C 526.565 359.486 526.667 359.23 526.868 359.037 C 527.07 358.845 527.353 358.749 527.716 358.749 L 529.861 358.749 L 529.861 355.132 C 529.861 354.727 529.979 354.412 530.213 354.188 C 530.448 353.964 530.768 353.851 531.173 353.851 C 531.558 353.851 531.868 353.964 532.102 354.188 C 532.337 354.412 532.454 354.727 532.454 355.132 L 532.454 358.749 L 536.007 358.749 C 536.349 358.749 536.621 358.845 536.823 359.037 C 537.027 359.23 537.128 359.486 537.128 359.806 C 537.128 360.104 537.027 360.344 536.823 360.525 C 536.621 360.707 536.349 360.797 536.007 360.797 L 532.454 360.797 L 532.454 368.96 C 532.454 370.134 532.695 370.982 533.175 371.504 C 533.655 372.028 534.374 372.321 535.334 372.385 L 536.199 372.449 Z M 541.192 374.497 C 540.807 374.497 540.492 374.385 540.248 374.161 C 540.001 373.937 539.878 373.623 539.878 373.219 L 539.878 359.709 C 539.878 359.304 540.001 358.989 540.248 358.765 C 540.492 358.54 540.807 358.428 541.192 358.428 C 541.576 358.428 541.885 358.54 542.119 358.765 C 542.354 358.989 542.471 359.304 542.471 359.709 L 542.471 373.219 C 542.471 373.645 542.354 373.965 542.119 374.179 C 541.885 374.391 541.576 374.497 541.192 374.497 Z M 541.192 355.068 C 540.679 355.068 540.262 354.918 539.942 354.619 C 539.622 354.321 539.462 353.927 539.462 353.436 C 539.462 352.967 539.622 352.582 539.942 352.283 C 540.262 351.985 540.679 351.836 541.192 351.836 C 541.704 351.836 542.12 351.985 542.44 352.283 C 542.76 352.582 542.92 352.967 542.92 353.436 C 542.92 353.927 542.76 354.321 542.44 354.619 C 542.12 354.918 541.704 355.068 541.192 355.068 Z M 553.769 374.561 C 552.298 374.561 551.001 374.231 549.88 373.57 C 548.76 372.908 547.896 371.964 547.288 370.737 C 546.68 369.509 546.376 368.085 546.376 366.463 C 546.376 364.842 546.68 363.418 547.288 362.191 C 547.896 360.964 548.76 360.019 549.88 359.357 C 551.001 358.695 552.298 358.364 553.769 358.364 C 555.243 358.364 556.545 358.695 557.676 359.357 C 558.806 360.019 559.675 360.964 560.284 362.191 C 560.892 363.418 561.195 364.842 561.195 366.463 C 561.195 368.085 560.892 369.509 560.284 370.737 C 559.675 371.964 558.806 372.908 557.676 373.57 C 556.545 374.231 555.243 374.561 553.769 374.561 Z M 553.769 372.418 C 555.306 372.418 556.485 371.911 557.307 370.896 C 558.128 369.883 558.539 368.405 558.539 366.463 C 558.539 364.565 558.123 363.098 557.291 362.063 C 556.459 361.028 555.285 360.51 553.769 360.51 C 552.255 360.51 551.081 361.028 550.248 362.063 C 549.416 363.098 549 364.565 549 366.463 C 549 368.384 549.411 369.857 550.232 370.88 C 551.054 371.905 552.233 372.418 553.769 372.418 Z M 572.908 358.364 C 576.644 358.364 578.512 360.424 578.512 364.543 L 578.512 373.219 C 578.512 373.623 578.399 373.937 578.175 374.161 C 577.951 374.385 577.636 374.497 577.231 374.497 C 576.825 374.497 576.505 374.385 576.271 374.161 C 576.036 373.937 575.919 373.623 575.919 373.219 L 575.919 364.704 C 575.919 363.253 575.636 362.196 575.069 361.534 C 574.504 360.872 573.603 360.541 572.364 360.541 C 570.935 360.541 569.794 360.979 568.94 361.855 C 568.086 362.729 567.659 363.914 567.659 365.408 L 567.659 373.219 C 567.659 373.623 567.547 373.937 567.323 374.161 C 567.098 374.385 566.784 374.497 566.38 374.497 C 565.975 374.497 565.654 374.385 565.418 374.161 C 565.183 373.937 565.066 373.623 565.066 373.219 L 565.066 359.709 C 565.066 359.326 565.183 359.017 565.418 358.782 C 565.654 358.546 565.975 358.428 566.38 358.428 C 566.764 358.428 567.067 358.546 567.292 358.782 C 567.516 359.017 567.628 359.315 567.628 359.678 L 567.628 361.311 C 568.14 360.351 568.854 359.62 569.771 359.118 C 570.69 358.616 571.736 358.364 572.908 358.364 Z M 604.018 351.611 C 604.424 351.611 604.744 351.728 604.978 351.962 C 605.213 352.198 605.33 352.498 605.33 352.86 L 605.33 373.219 C 605.33 373.602 605.213 373.911 604.978 374.145 C 604.744 374.38 604.424 374.497 604.018 374.497 C 603.613 374.497 603.298 374.38 603.074 374.145 C 602.85 373.911 602.738 373.602 602.738 373.219 L 602.738 371.489 C 602.269 372.471 601.581 373.229 600.674 373.763 C 599.767 374.295 598.705 374.561 597.488 374.561 C 596.123 374.561 594.917 374.22 593.871 373.537 C 592.826 372.854 592.015 371.899 591.438 370.672 C 590.863 369.445 590.575 368.021 590.575 366.399 C 590.575 364.799 590.863 363.39 591.438 362.173 C 592.015 360.958 592.826 360.019 593.871 359.357 C 594.917 358.695 596.123 358.364 597.488 358.364 C 598.705 358.364 599.767 358.631 600.674 359.165 C 601.581 359.699 602.269 360.457 602.738 361.439 L 602.738 352.86 C 602.738 352.475 602.85 352.171 603.074 351.947 C 603.298 351.723 603.613 351.611 604.018 351.611 Z M 598.001 372.418 C 599.516 372.418 600.684 371.9 601.505 370.865 C 602.327 369.83 602.738 368.362 602.738 366.463 C 602.738 364.565 602.327 363.103 601.505 362.078 C 600.684 361.053 599.516 360.541 598.001 360.541 C 596.485 360.541 595.306 361.053 594.464 362.078 C 593.621 363.103 593.199 364.543 593.199 366.399 C 593.199 368.298 593.621 369.776 594.464 370.834 C 595.306 371.89 596.485 372.418 598.001 372.418 Z M 616.5 358.364 C 620.405 358.364 622.358 360.413 622.358 364.512 L 622.358 373.219 C 622.358 373.602 622.246 373.911 622.022 374.145 C 621.797 374.38 621.493 374.497 621.108 374.497 C 620.725 374.497 620.416 374.38 620.181 374.145 C 619.947 373.911 619.829 373.602 619.829 373.219 L 619.829 371.681 C 619.424 372.598 618.804 373.308 617.971 373.809 C 617.14 374.311 616.18 374.561 615.091 374.561 C 614.088 374.561 613.165 374.358 612.322 373.953 C 611.479 373.547 610.813 372.982 610.322 372.256 C 609.831 371.531 609.585 370.731 609.585 369.856 C 609.585 368.682 609.884 367.77 610.481 367.12 C 611.08 366.469 612.062 366 613.428 365.711 C 614.793 365.423 616.692 365.279 619.124 365.279 L 619.829 365.279 L 619.829 364.222 C 619.829 362.942 619.568 362.003 619.044 361.406 C 618.522 360.809 617.674 360.51 616.5 360.51 C 615.049 360.51 613.576 360.904 612.083 361.693 C 611.506 362.056 611.1 362.238 610.866 362.238 C 610.609 362.238 610.396 362.142 610.227 361.95 C 610.055 361.758 609.97 361.513 609.97 361.213 C 609.97 360.915 610.061 360.654 610.242 360.43 C 610.424 360.206 610.717 359.977 611.123 359.742 C 611.869 359.315 612.717 358.978 613.667 358.734 C 614.616 358.487 615.561 358.364 616.5 358.364 Z M 615.443 372.513 C 616.723 372.513 617.774 372.081 618.597 371.217 C 619.419 370.352 619.829 369.237 619.829 367.872 L 619.829 366.943 L 619.252 366.943 C 617.375 366.943 615.945 367.023 614.963 367.184 C 613.982 367.343 613.283 367.61 612.866 367.985 C 612.45 368.358 612.242 368.907 612.242 369.633 C 612.242 370.464 612.546 371.152 613.156 371.697 C 613.763 372.241 614.525 372.513 615.443 372.513 Z M 634.295 372.449 C 635.041 372.514 635.414 372.855 635.414 373.473 C 635.414 373.836 635.281 374.108 635.016 374.289 C 634.749 374.471 634.348 374.54 633.815 374.497 L 632.95 374.433 C 631.243 374.306 629.985 373.794 629.173 372.898 C 628.362 372.001 627.957 370.646 627.957 368.832 L 627.957 360.797 L 625.811 360.797 C 625.448 360.797 625.166 360.707 624.964 360.525 C 624.762 360.344 624.661 360.104 624.661 359.806 C 624.661 359.486 624.762 359.23 624.964 359.037 C 625.166 358.845 625.448 358.749 625.811 358.749 L 627.957 358.749 L 627.957 355.132 C 627.957 354.727 628.074 354.412 628.309 354.188 C 628.543 353.964 628.863 353.851 629.269 353.851 C 629.654 353.851 629.963 353.964 630.198 354.188 C 630.432 354.412 630.549 354.727 630.549 355.132 L 630.549 358.749 L 634.102 358.749 C 634.444 358.749 634.716 358.845 634.918 359.037 C 635.122 359.23 635.224 359.486 635.224 359.806 C 635.224 360.104 635.122 360.344 634.918 360.525 C 634.716 360.707 634.444 360.797 634.102 360.797 L 630.549 360.797 L 630.549 368.96 C 630.549 370.134 630.79 370.982 631.271 371.504 C 631.75 372.028 632.47 372.321 633.43 372.385 L 634.295 372.449 Z M 644.344 358.364 C 648.249 358.364 650.202 360.413 650.202 364.512 L 650.202 373.219 C 650.202 373.602 650.09 373.911 649.866 374.145 C 649.642 374.38 649.337 374.497 648.952 374.497 C 648.569 374.497 648.26 374.38 648.025 374.145 C 647.791 373.911 647.674 373.602 647.674 373.219 L 647.674 371.681 C 647.268 372.598 646.649 373.308 645.815 373.809 C 644.984 374.311 644.024 374.561 642.935 374.561 C 641.933 374.561 641.009 374.358 640.166 373.953 C 639.324 373.547 638.657 372.982 638.166 372.256 C 637.675 371.531 637.429 370.731 637.429 369.856 C 637.429 368.682 637.728 367.77 638.325 367.12 C 638.924 366.469 639.906 366 641.272 365.711 C 642.637 365.423 644.536 365.279 646.968 365.279 L 647.674 365.279 L 647.674 364.222 C 647.674 362.942 647.412 362.003 646.888 361.406 C 646.366 360.809 645.518 360.51 644.344 360.51 C 642.893 360.51 641.421 360.904 639.927 361.693 C 639.35 362.056 638.945 362.238 638.71 362.238 C 638.454 362.238 638.241 362.142 638.071 361.95 C 637.9 361.758 637.814 361.513 637.814 361.213 C 637.814 360.915 637.905 360.654 638.086 360.43 C 638.268 360.206 638.561 359.977 638.967 359.742 C 639.713 359.315 640.561 358.978 641.511 358.734 C 642.46 358.487 643.405 358.364 644.344 358.364 Z M 643.287 372.513 C 644.567 372.513 645.619 372.081 646.442 371.217 C 647.263 370.352 647.674 369.237 647.674 367.872 L 647.674 366.943 L 647.096 366.943 C 645.219 366.943 643.789 367.023 642.807 367.184 C 641.826 367.343 641.127 367.61 640.71 367.985 C 640.294 368.358 640.086 368.907 640.086 369.633 C 640.086 370.464 640.391 371.152 641 371.697 C 641.607 372.241 642.37 372.513 643.287 372.513 Z M 669.564 358.364 C 673.47 358.364 675.422 360.413 675.422 364.512 L 675.422 373.219 C 675.422 373.602 675.31 373.911 675.086 374.145 C 674.862 374.38 674.557 374.497 674.172 374.497 C 673.789 374.497 673.48 374.38 673.245 374.145 C 673.011 373.911 672.894 373.602 672.894 373.219 L 672.894 371.681 C 672.488 372.598 671.869 373.308 671.035 373.809 C 670.204 374.311 669.244 374.561 668.155 374.561 C 667.152 374.561 666.229 374.358 665.386 373.953 C 664.544 373.547 663.877 372.982 663.386 372.256 C 662.895 371.531 662.649 370.731 662.649 369.856 C 662.649 368.682 662.948 367.77 663.545 367.12 C 664.144 366.469 665.126 366 666.492 365.711 C 667.858 365.423 669.756 365.279 672.188 365.279 L 672.894 365.279 L 672.894 364.222 C 672.894 362.942 672.632 362.003 672.108 361.406 C 671.586 360.809 670.738 360.51 669.564 360.51 C 668.113 360.51 666.641 360.904 665.147 361.693 C 664.57 362.056 664.165 362.238 663.93 362.238 C 663.673 362.238 663.46 362.142 663.291 361.95 C 663.12 361.758 663.034 361.513 663.034 361.213 C 663.034 360.915 663.125 360.654 663.306 360.43 C 663.488 360.206 663.781 359.977 664.187 359.742 C 664.933 359.315 665.781 358.978 666.731 358.734 C 667.681 358.487 668.625 358.364 669.564 358.364 Z M 668.507 372.513 C 669.787 372.513 670.839 372.081 671.661 371.217 C 672.483 370.352 672.894 369.237 672.894 367.872 L 672.894 366.943 L 672.316 366.943 C 670.439 366.943 669.009 367.023 668.027 367.184 C 667.046 367.343 666.347 367.61 665.93 367.985 C 665.514 368.358 665.306 368.907 665.306 369.633 C 665.306 370.464 665.611 371.152 666.22 371.697 C 666.827 372.241 667.59 372.513 668.507 372.513 Z M 687.998 358.364 C 691.734 358.364 693.601 360.424 693.601 364.543 L 693.601 373.219 C 693.601 373.623 693.489 373.937 693.265 374.161 C 693.041 374.385 692.726 374.497 692.321 374.497 C 691.915 374.497 691.595 374.385 691.361 374.161 C 691.126 373.937 691.009 373.623 691.009 373.219 L 691.009 364.704 C 691.009 363.253 690.726 362.196 690.159 361.534 C 689.595 360.872 688.693 360.541 687.454 360.541 C 686.025 360.541 684.884 360.979 684.03 361.855 C 683.176 362.729 682.749 363.914 682.749 365.408 L 682.749 373.219 C 682.749 373.623 682.637 373.937 682.413 374.161 C 682.188 374.385 681.874 374.497 681.47 374.497 C 681.065 374.497 680.744 374.385 680.508 374.161 C 680.273 373.937 680.156 373.623 680.156 373.219 L 680.156 359.709 C 680.156 359.326 680.273 359.017 680.508 358.782 C 680.744 358.546 681.065 358.428 681.47 358.428 C 681.854 358.428 682.158 358.546 682.382 358.782 C 682.606 359.017 682.718 359.315 682.718 359.678 L 682.718 361.311 C 683.23 360.351 683.944 359.62 684.861 359.118 C 685.78 358.616 686.826 358.364 687.998 358.364 Z M 704.706 358.364 C 708.611 358.364 710.564 360.413 710.564 364.512 L 710.564 373.219 C 710.564 373.602 710.452 373.911 710.227 374.145 C 710.003 374.38 709.699 374.497 709.314 374.497 C 708.93 374.497 708.621 374.38 708.387 374.145 C 708.152 373.911 708.035 373.602 708.035 373.219 L 708.035 371.681 C 707.63 372.598 707.01 373.308 706.177 373.809 C 705.345 374.311 704.385 374.561 703.297 374.561 C 702.294 374.561 701.371 374.358 700.527 373.953 C 699.685 373.547 699.019 372.982 698.527 372.256 C 698.036 371.531 697.791 370.731 697.791 369.856 C 697.791 368.682 698.089 367.77 698.687 367.12 C 699.286 366.469 700.268 366 701.633 365.711 C 702.999 365.423 704.898 365.279 707.329 365.279 L 708.035 365.279 L 708.035 364.222 C 708.035 362.942 707.773 362.003 707.25 361.406 C 706.728 360.809 705.88 360.51 704.706 360.51 C 703.255 360.51 701.782 360.904 700.288 361.693 C 699.712 362.056 699.306 362.238 699.072 362.238 C 698.815 362.238 698.602 362.142 698.432 361.95 C 698.261 361.758 698.176 361.513 698.176 361.213 C 698.176 360.915 698.266 360.654 698.448 360.43 C 698.629 360.206 698.923 359.977 699.328 359.742 C 700.075 359.315 700.923 358.978 701.872 358.734 C 702.822 358.487 703.767 358.364 704.706 358.364 Z M 703.648 372.513 C 704.929 372.513 705.98 372.081 706.803 371.217 C 707.625 370.352 708.035 369.237 708.035 367.872 L 708.035 366.943 L 707.458 366.943 C 705.581 366.943 704.151 367.023 703.168 367.184 C 702.188 367.343 701.489 367.61 701.071 367.985 C 700.655 368.358 700.448 368.907 700.448 369.633 C 700.448 370.464 700.752 371.152 701.361 371.697 C 701.969 372.241 702.731 372.513 703.648 372.513 Z M 716.612 374.497 C 716.227 374.497 715.912 374.385 715.667 374.161 C 715.421 373.937 715.298 373.623 715.298 373.219 L 715.298 352.891 C 715.298 352.486 715.421 352.171 715.667 351.947 C 715.912 351.723 716.227 351.611 716.612 351.611 C 716.975 351.611 717.278 351.723 717.523 351.947 C 717.768 352.171 717.89 352.486 717.89 352.891 L 717.89 373.219 C 717.89 373.623 717.768 373.937 717.523 374.161 C 717.278 374.385 716.975 374.497 716.612 374.497 Z M 733.958 359.229 C 734.193 358.717 734.567 358.461 735.08 358.461 C 735.4 358.461 735.687 358.568 735.943 358.782 C 736.199 358.995 736.327 359.261 736.327 359.581 C 736.327 359.774 736.285 359.945 736.199 360.094 L 727.205 379.492 C 727.099 379.727 726.944 379.908 726.74 380.036 C 726.538 380.163 726.33 380.227 726.116 380.227 C 725.796 380.227 725.514 380.125 725.269 379.923 C 725.023 379.722 724.9 379.46 724.9 379.138 C 724.9 378.968 724.942 378.798 725.028 378.627 L 727.269 373.794 L 720.931 360.094 C 720.846 359.945 720.803 359.785 720.803 359.614 C 720.803 359.294 720.947 359.017 721.234 358.782 C 721.523 358.546 721.838 358.428 722.179 358.428 C 722.392 358.428 722.6 358.492 722.803 358.621 C 723.006 358.749 723.161 358.93 723.267 359.165 L 728.614 371.168 L 733.958 359.229 Z M 744.135 374.561 C 743.154 374.561 742.221 374.444 741.334 374.21 C 740.449 373.975 739.666 373.645 738.983 373.219 C 738.598 372.962 738.326 372.721 738.166 372.497 C 738.006 372.273 737.925 372.001 737.925 371.681 C 737.925 371.404 738.006 371.175 738.166 370.993 C 738.326 370.812 738.534 370.721 738.79 370.721 C 739.046 370.721 739.418 370.881 739.91 371.201 C 740.55 371.584 741.185 371.888 741.814 372.112 C 742.444 372.337 743.229 372.449 744.168 372.449 C 745.32 372.449 746.216 372.246 746.856 371.84 C 747.496 371.435 747.816 370.848 747.816 370.08 C 747.816 369.611 747.698 369.232 747.464 368.945 C 747.229 368.656 746.824 368.4 746.247 368.177 C 745.672 367.953 744.829 367.723 743.719 367.487 C 741.842 367.081 740.497 366.537 739.686 365.854 C 738.875 365.172 738.469 364.244 738.469 363.072 C 738.469 362.153 738.725 361.342 739.237 360.638 C 739.75 359.933 740.46 359.378 741.367 358.972 C 742.274 358.567 743.304 358.364 744.455 358.364 C 745.287 358.364 746.093 358.476 746.873 358.7 C 747.652 358.924 748.34 359.239 748.937 359.645 C 749.663 360.158 750.026 360.692 750.026 361.247 C 750.026 361.524 749.94 361.758 749.769 361.95 C 749.598 362.142 749.395 362.238 749.161 362.238 C 748.904 362.238 748.52 362.056 748.008 361.693 C 747.411 361.31 746.845 361.011 746.311 360.797 C 745.779 360.584 745.118 360.477 744.327 360.477 C 743.324 360.477 742.519 360.701 741.912 361.149 C 741.303 361.598 740.998 362.196 740.998 362.943 C 740.998 363.412 741.11 363.79 741.334 364.078 C 741.558 364.367 741.932 364.624 742.456 364.848 C 742.978 365.072 743.73 365.29 744.712 365.503 C 746.163 365.823 747.289 366.175 748.088 366.56 C 748.889 366.943 749.46 367.412 749.802 367.967 C 750.143 368.523 750.313 369.227 750.313 370.08 C 750.313 371.425 749.748 372.508 748.616 373.329 C 747.485 374.15 745.992 374.561 744.135 374.561 Z M 755.562 374.497 C 755.177 374.497 754.862 374.385 754.617 374.161 C 754.371 373.937 754.248 373.623 754.248 373.219 L 754.248 359.709 C 754.248 359.304 754.371 358.989 754.617 358.765 C 754.862 358.54 755.177 358.428 755.562 358.428 C 755.945 358.428 756.254 358.54 756.489 358.765 C 756.723 358.989 756.84 359.304 756.84 359.709 L 756.84 373.219 C 756.84 373.645 756.723 373.965 756.489 374.179 C 756.254 374.391 755.945 374.497 755.562 374.497 Z M 755.562 355.068 C 755.049 355.068 754.632 354.918 754.312 354.619 C 753.992 354.321 753.832 353.927 753.832 353.436 C 753.832 352.967 753.992 352.582 754.312 352.283 C 754.632 351.985 755.049 351.836 755.562 351.836 C 756.074 351.836 756.489 351.985 756.809 352.283 C 757.129 352.582 757.29 352.967 757.29 353.436 C 757.29 353.927 757.129 354.321 756.809 354.619 C 756.489 354.918 756.074 355.068 755.562 355.068 Z M 766.922 374.561 C 765.942 374.561 765.008 374.444 764.122 374.21 C 763.237 373.975 762.453 373.645 761.77 373.219 C 761.385 372.962 761.113 372.721 760.954 372.497 C 760.793 372.273 760.713 372.001 760.713 371.681 C 760.713 371.404 760.793 371.175 760.954 370.993 C 761.113 370.812 761.321 370.721 761.578 370.721 C 761.833 370.721 762.206 370.881 762.697 371.201 C 763.337 371.584 763.972 371.888 764.602 372.112 C 765.231 372.337 766.016 372.449 766.956 372.449 C 768.107 372.449 769.003 372.246 769.643 371.84 C 770.283 371.435 770.603 370.848 770.603 370.08 C 770.603 369.611 770.486 369.232 770.252 368.945 C 770.017 368.656 769.611 368.4 769.035 368.177 C 768.46 367.953 767.617 367.723 766.507 367.487 C 764.629 367.081 763.285 366.537 762.474 365.854 C 761.663 365.172 761.257 364.244 761.257 363.072 C 761.257 362.153 761.513 361.342 762.025 360.638 C 762.538 359.933 763.248 359.378 764.155 358.972 C 765.062 358.567 766.091 358.364 767.243 358.364 C 768.075 358.364 768.881 358.476 769.661 358.7 C 770.44 358.924 771.128 359.239 771.725 359.645 C 772.451 360.158 772.813 360.692 772.813 361.247 C 772.813 361.524 772.728 361.758 772.557 361.95 C 772.385 362.142 772.183 362.238 771.948 362.238 C 771.692 362.238 771.308 362.056 770.796 361.693 C 770.199 361.31 769.633 361.011 769.099 360.797 C 768.567 360.584 767.905 360.477 767.115 360.477 C 766.112 360.477 765.307 360.701 764.699 361.149 C 764.09 361.598 763.786 362.196 763.786 362.943 C 763.786 363.412 763.898 363.79 764.122 364.078 C 764.346 364.367 764.72 364.624 765.243 364.848 C 765.765 365.072 766.518 365.29 767.5 365.503 C 768.951 365.823 770.076 366.175 770.875 366.56 C 771.676 366.943 772.248 367.412 772.59 367.967 C 772.931 368.523 773.101 369.227 773.101 370.08 C 773.101 371.425 772.535 372.508 771.404 373.329 C 770.273 374.15 768.779 374.561 766.922 374.561 Z M 791.664 358.364 C 795.569 358.364 797.521 360.413 797.521 364.512 L 797.521 373.219 C 797.521 373.602 797.409 373.911 797.185 374.145 C 796.961 374.38 796.656 374.497 796.272 374.497 C 795.888 374.497 795.579 374.38 795.345 374.145 C 795.11 373.911 794.993 373.602 794.993 373.219 L 794.993 371.681 C 794.587 372.598 793.968 373.308 793.135 373.809 C 792.303 374.311 791.343 374.561 790.255 374.561 C 789.252 374.561 788.328 374.358 787.485 373.953 C 786.643 373.547 785.976 372.982 785.485 372.256 C 784.994 371.531 784.749 370.731 784.749 369.856 C 784.749 368.682 785.047 367.77 785.644 367.12 C 786.243 366.469 787.225 366 788.591 365.711 C 789.957 365.423 791.855 365.279 794.287 365.279 L 794.993 365.279 L 794.993 364.222 C 794.993 362.942 794.731 362.003 794.208 361.406 C 793.686 360.809 792.837 360.51 791.664 360.51 C 790.213 360.51 788.74 360.904 787.246 361.693 C 786.669 362.056 786.264 362.238 786.029 362.238 C 785.773 362.238 785.56 362.142 785.39 361.95 C 785.219 361.758 785.133 361.513 785.133 361.213 C 785.133 360.915 785.224 360.654 785.406 360.43 C 785.587 360.206 785.88 359.977 786.286 359.742 C 787.032 359.315 787.88 358.978 788.83 358.734 C 789.78 358.487 790.724 358.364 791.664 358.364 Z M 790.606 372.513 C 791.886 372.513 792.938 372.081 793.761 371.217 C 794.582 370.352 794.993 369.237 794.993 367.872 L 794.993 366.943 L 794.416 366.943 C 792.538 366.943 791.108 367.023 790.126 367.184 C 789.145 367.343 788.446 367.61 788.029 367.985 C 787.613 368.358 787.405 368.907 787.405 369.633 C 787.405 370.464 787.71 371.152 788.319 371.697 C 788.926 372.241 789.689 372.513 790.606 372.513 Z M 810.097 358.364 C 813.833 358.364 815.701 360.424 815.701 364.543 L 815.701 373.219 C 815.701 373.623 815.588 373.937 815.364 374.161 C 815.14 374.385 814.825 374.497 814.42 374.497 C 814.014 374.497 813.694 374.385 813.46 374.161 C 813.225 373.937 813.108 373.623 813.108 373.219 L 813.108 364.704 C 813.108 363.253 812.825 362.196 812.258 361.534 C 811.694 360.872 810.792 360.541 809.553 360.541 C 808.124 360.541 806.983 360.979 806.129 361.855 C 805.275 362.729 804.848 363.914 804.848 365.408 L 804.848 373.219 C 804.848 373.623 804.736 373.937 804.512 374.161 C 804.287 374.385 803.973 374.497 803.569 374.497 C 803.164 374.497 802.843 374.385 802.607 374.161 C 802.373 373.937 802.255 373.623 802.255 373.219 L 802.255 359.709 C 802.255 359.326 802.373 359.017 802.607 358.782 C 802.843 358.546 803.164 358.428 803.569 358.428 C 803.953 358.428 804.256 358.546 804.481 358.782 C 804.705 359.017 804.817 359.315 804.817 359.678 L 804.817 361.311 C 805.329 360.351 806.043 359.62 806.96 359.118 C 807.879 358.616 808.925 358.364 810.097 358.364 Z M 832.95 351.611 C 833.356 351.611 833.676 351.728 833.91 351.962 C 834.145 352.198 834.262 352.498 834.262 352.86 L 834.262 373.219 C 834.262 373.602 834.145 373.911 833.91 374.145 C 833.676 374.38 833.356 374.497 832.95 374.497 C 832.545 374.497 832.23 374.38 832.006 374.145 C 831.782 373.911 831.669 373.602 831.669 373.219 L 831.669 371.489 C 831.2 372.471 830.512 373.229 829.606 373.763 C 828.699 374.295 827.637 374.561 826.42 374.561 C 825.055 374.561 823.849 374.22 822.803 373.537 C 821.758 372.854 820.947 371.899 820.37 370.672 C 819.795 369.445 819.507 368.021 819.507 366.399 C 819.507 364.799 819.795 363.39 820.37 362.173 C 820.947 360.958 821.758 360.019 822.803 359.357 C 823.849 358.695 825.055 358.364 826.42 358.364 C 827.637 358.364 828.699 358.631 829.606 359.165 C 830.512 359.699 831.2 360.457 831.669 361.439 L 831.669 352.86 C 831.669 352.475 831.782 352.171 832.006 351.947 C 832.23 351.723 832.545 351.611 832.95 351.611 Z M 826.933 372.418 C 828.448 372.418 829.616 371.9 830.437 370.865 C 831.259 369.83 831.669 368.362 831.669 366.463 C 831.669 364.565 831.259 363.103 830.437 362.078 C 829.616 361.053 828.448 360.541 826.933 360.541 C 825.417 360.541 824.238 361.053 823.396 362.078 C 822.553 363.103 822.131 364.543 822.131 366.399 C 822.131 368.298 822.553 369.776 823.396 370.834 C 824.238 371.89 825.417 372.418 826.933 372.418 Z M 864.668 358.364 C 868.125 358.364 869.853 360.424 869.853 364.543 L 869.853 373.219 C 869.853 373.623 869.736 373.937 869.501 374.161 C 869.267 374.385 868.957 374.497 868.572 374.497 C 868.189 374.497 867.874 374.385 867.628 374.161 C 867.383 373.937 867.26 373.623 867.26 373.219 L 867.26 364.607 C 867.26 363.178 867.005 362.143 866.493 361.503 C 865.98 360.862 865.18 360.541 864.093 360.541 C 862.791 360.541 861.766 360.979 861.018 361.855 C 860.272 362.729 859.898 363.914 859.898 365.408 L 859.898 373.219 C 859.898 373.623 859.776 373.937 859.531 374.161 C 859.285 374.385 858.97 374.497 858.587 374.497 C 858.202 374.497 857.892 374.385 857.658 374.161 C 857.423 373.937 857.306 373.623 857.306 373.219 L 857.306 364.607 C 857.306 363.178 857.05 362.143 856.538 361.503 C 856.025 360.862 855.214 360.541 854.105 360.541 C 852.825 360.541 851.806 360.979 851.048 361.855 C 850.29 362.729 849.911 363.914 849.911 365.408 L 849.911 373.219 C 849.911 373.623 849.794 373.937 849.559 374.161 C 849.325 374.385 849.016 374.497 848.632 374.497 C 848.247 374.497 847.932 374.385 847.688 374.161 C 847.441 373.937 847.318 373.623 847.318 373.219 L 847.318 359.709 C 847.318 359.326 847.441 359.017 847.688 358.782 C 847.932 358.546 848.247 358.428 848.632 358.428 C 848.995 358.428 849.294 358.54 849.528 358.765 C 849.763 358.989 849.88 359.293 849.88 359.678 L 849.88 361.213 C 850.349 360.296 851 359.592 851.833 359.101 C 852.665 358.61 853.625 358.364 854.713 358.364 C 857.145 358.364 858.735 359.389 859.483 361.439 C 859.931 360.5 860.614 359.753 861.531 359.198 C 862.448 358.642 863.494 358.364 864.668 358.364 Z M 881.053 374.561 C 879.581 374.561 878.284 374.231 877.164 373.57 C 876.043 372.908 875.178 371.964 874.571 370.737 C 873.963 369.509 873.66 368.085 873.66 366.463 C 873.66 364.842 873.963 363.418 874.571 362.191 C 875.178 360.964 876.043 360.019 877.164 359.357 C 878.284 358.695 879.581 358.364 881.053 358.364 C 882.526 358.364 883.828 358.695 884.959 359.357 C 886.089 360.019 886.958 360.964 887.567 362.191 C 888.175 363.418 888.479 364.842 888.479 366.463 C 888.479 368.085 888.175 369.509 887.567 370.737 C 886.958 371.964 886.089 372.908 884.959 373.57 C 883.828 374.231 882.526 374.561 881.053 374.561 Z M 881.053 372.418 C 882.589 372.418 883.768 371.911 884.59 370.896 C 885.411 369.883 885.822 368.405 885.822 366.463 C 885.822 364.565 885.406 363.098 884.574 362.063 C 883.742 361.028 882.569 360.51 881.053 360.51 C 879.538 360.51 878.364 361.028 877.531 362.063 C 876.699 363.098 876.283 364.565 876.283 366.463 C 876.283 368.384 876.694 369.857 877.515 370.88 C 878.337 371.905 879.516 372.418 881.053 372.418 Z M 904.865 351.611 C 905.271 351.611 905.591 351.728 905.825 351.962 C 906.06 352.198 906.177 352.498 906.177 352.86 L 906.177 373.219 C 906.177 373.602 906.06 373.911 905.825 374.145 C 905.591 374.38 905.271 374.497 904.865 374.497 C 904.46 374.497 904.145 374.38 903.921 374.145 C 903.697 373.911 903.585 373.602 903.585 373.219 L 903.585 371.489 C 903.116 372.471 902.428 373.229 901.521 373.763 C 900.614 374.295 899.552 374.561 898.335 374.561 C 896.97 374.561 895.764 374.22 894.718 373.537 C 893.673 372.854 892.862 371.899 892.285 370.672 C 891.71 369.445 891.422 368.021 891.422 366.399 C 891.422 364.799 891.71 363.39 892.285 362.173 C 892.862 360.958 893.673 360.019 894.718 359.357 C 895.764 358.695 896.97 358.364 898.335 358.364 C 899.552 358.364 900.614 358.631 901.521 359.165 C 902.428 359.699 903.116 360.457 903.585 361.439 L 903.585 352.86 C 903.585 352.475 903.697 352.171 903.921 351.947 C 904.145 351.723 904.46 351.611 904.865 351.611 Z M 898.848 372.418 C 900.363 372.418 901.531 371.9 902.352 370.865 C 903.174 369.83 903.585 368.362 903.585 366.463 C 903.585 364.565 903.174 363.103 902.352 362.078 C 901.531 361.053 900.363 360.541 898.848 360.541 C 897.332 360.541 896.153 361.053 895.311 362.078 C 894.468 363.103 894.046 364.543 894.046 366.399 C 894.046 368.298 894.468 369.776 895.311 370.834 C 896.153 371.89 897.332 372.418 898.848 372.418 Z M 923.043 370.721 C 923.279 370.721 923.482 370.817 923.652 371.009 C 923.823 371.2 923.908 371.446 923.908 371.745 C 923.908 372.279 923.535 372.77 922.789 373.219 C 922.021 373.665 921.209 374.001 920.356 374.225 C 919.502 374.449 918.669 374.561 917.858 374.561 C 915.447 374.561 913.542 373.847 912.144 372.418 C 910.748 370.987 910.049 369.013 910.049 366.496 C 910.049 364.896 910.358 363.482 910.976 362.255 C 911.596 361.028 912.466 360.073 913.586 359.391 C 914.706 358.706 915.981 358.364 917.411 358.364 C 919.437 358.364 921.049 359.026 922.245 360.351 C 923.439 361.673 924.036 363.466 924.036 365.728 C 924.036 366.155 923.951 366.463 923.78 366.655 C 923.609 366.847 923.332 366.943 922.948 366.943 L 912.642 366.943 C 912.834 370.613 914.572 372.449 917.858 372.449 C 918.691 372.449 919.407 372.337 920.004 372.112 C 920.601 371.888 921.241 371.584 921.924 371.201 C 922.478 370.881 922.852 370.721 923.043 370.721 Z M 917.442 360.382 C 916.077 360.382 914.983 360.809 914.162 361.662 C 913.34 362.516 912.855 363.722 912.706 365.279 L 921.765 365.279 C 921.722 363.7 921.327 362.489 920.579 361.647 C 919.833 360.803 918.787 360.382 917.442 360.382 Z M 929.157 374.497 C 928.772 374.497 928.457 374.385 928.212 374.161 C 927.966 373.937 927.843 373.623 927.843 373.219 L 927.843 352.891 C 927.843 352.486 927.966 352.171 928.212 351.947 C 928.457 351.723 928.772 351.611 929.157 351.611 C 929.52 351.611 929.823 351.723 930.068 351.947 C 930.313 352.171 930.435 352.486 930.435 352.891 L 930.435 373.219 C 930.435 373.623 930.313 373.937 930.068 374.161 C 929.823 374.385 929.52 374.497 929.157 374.497 Z M 936.582 374.497 C 936.197 374.497 935.882 374.385 935.638 374.161 C 935.391 373.937 935.268 373.623 935.268 373.219 L 935.268 352.891 C 935.268 352.486 935.391 352.171 935.638 351.947 C 935.882 351.723 936.197 351.611 936.582 351.611 C 936.945 351.611 937.249 351.723 937.493 351.947 C 937.738 352.171 937.861 352.486 937.861 352.891 L 937.861 373.219 C 937.861 373.623 937.738 373.937 937.493 374.161 C 937.249 374.385 936.945 374.497 936.582 374.497 Z M 944.007 374.497 C 943.622 374.497 943.307 374.385 943.063 374.161 C 942.816 373.937 942.693 373.623 942.693 373.219 L 942.693 359.709 C 942.693 359.304 942.816 358.989 943.063 358.765 C 943.307 358.54 943.622 358.428 944.007 358.428 C 944.391 358.428 944.7 358.54 944.934 358.765 C 945.169 358.989 945.286 359.304 945.286 359.709 L 945.286 373.219 C 945.286 373.645 945.169 373.965 944.934 374.179 C 944.7 374.391 944.391 374.497 944.007 374.497 Z M 944.007 355.068 C 943.494 355.068 943.077 354.918 942.757 354.619 C 942.437 354.321 942.277 353.927 942.277 353.436 C 942.277 352.967 942.437 352.582 942.757 352.283 C 943.077 351.985 943.494 351.836 944.007 351.836 C 944.519 351.836 944.935 351.985 945.255 352.283 C 945.575 352.582 945.735 352.967 945.735 353.436 C 945.735 353.927 945.575 354.321 945.255 354.619 C 944.935 354.918 944.519 355.068 944.007 355.068 Z M 957.96 358.364 C 961.696 358.364 963.564 360.424 963.564 364.543 L 963.564 373.219 C 963.564 373.623 963.452 373.937 963.228 374.161 C 963.003 374.385 962.688 374.497 962.283 374.497 C 961.877 374.497 961.557 374.385 961.323 374.161 C 961.088 373.937 960.971 373.623 960.971 373.219 L 960.971 364.704 C 960.971 363.253 960.688 362.196 960.122 361.534 C 959.557 360.872 958.655 360.541 957.416 360.541 C 955.987 360.541 954.846 360.979 953.992 361.855 C 953.138 362.729 952.711 363.914 952.711 365.408 L 952.711 373.219 C 952.711 373.623 952.599 373.937 952.375 374.161 C 952.151 374.385 951.836 374.497 951.432 374.497 C 951.027 374.497 950.706 374.385 950.47 374.161 C 950.236 373.937 950.118 373.623 950.118 373.219 L 950.118 359.709 C 950.118 359.326 950.236 359.017 950.47 358.782 C 950.706 358.546 951.027 358.428 951.432 358.428 C 951.816 358.428 952.12 358.546 952.344 358.782 C 952.568 359.017 952.68 359.315 952.68 359.678 L 952.68 361.311 C 953.192 360.351 953.906 359.62 954.824 359.118 C 955.742 358.616 956.788 358.364 957.96 358.364 Z M 980.942 358.428 C 981.347 358.428 981.667 358.546 981.902 358.782 C 982.136 359.017 982.254 359.326 982.254 359.709 L 982.254 373.28 C 982.254 375.608 981.656 377.363 980.462 378.548 C 979.267 379.732 977.496 380.324 975.148 380.324 C 972.865 380.324 970.966 379.875 969.45 378.979 C 968.681 378.553 968.297 378.062 968.297 377.508 C 968.297 377.209 968.378 376.963 968.538 376.771 C 968.698 376.578 968.906 376.481 969.162 376.481 C 969.376 376.481 969.76 376.631 970.315 376.93 C 971.061 377.315 971.797 377.625 972.522 377.86 C 973.248 378.094 974.112 378.211 975.115 378.211 C 976.631 378.211 977.773 377.811 978.542 377.01 C 979.31 376.211 979.694 375.043 979.694 373.506 L 979.694 370.752 C 979.246 371.755 978.557 372.523 977.628 373.057 C 976.7 373.591 975.607 373.858 974.347 373.858 C 972.982 373.858 971.771 373.538 970.715 372.898 C 969.658 372.258 968.836 371.351 968.251 370.177 C 967.664 369.003 967.37 367.648 967.37 366.111 C 967.37 364.574 967.664 363.22 968.251 362.047 C 968.836 360.873 969.658 359.966 970.715 359.326 C 971.771 358.685 972.982 358.364 974.347 358.364 C 975.585 358.364 976.663 358.631 977.582 359.165 C 978.499 359.699 979.192 360.457 979.661 361.439 L 979.661 359.709 C 979.661 359.326 979.773 359.017 979.997 358.782 C 980.221 358.546 980.536 358.428 980.942 358.428 Z M 974.861 371.712 C 976.353 371.712 977.526 371.217 978.38 370.226 C 979.234 369.233 979.661 367.861 979.661 366.111 C 979.661 364.383 979.24 363.022 978.398 362.03 C 977.554 361.037 976.375 360.541 974.861 360.541 C 973.344 360.541 972.154 361.037 971.29 362.03 C 970.426 363.022 969.994 364.383 969.994 366.111 C 969.994 367.861 970.426 369.233 971.29 370.226 C 972.154 371.217 973.344 371.712 974.861 371.712 Z M 1007.377 370.721 C 1007.612 370.721 1007.815 370.817 1007.985 371.009 C 1008.156 371.2 1008.241 371.446 1008.241 371.745 C 1008.241 372.279 1007.868 372.77 1007.122 373.219 C 1006.354 373.665 1005.543 374.001 1004.689 374.225 C 1003.835 374.449 1003.002 374.561 1002.191 374.561 C 999.78 374.561 997.875 373.847 996.477 372.418 C 995.081 370.987 994.383 369.013 994.383 366.496 C 994.383 364.896 994.691 363.482 995.309 362.255 C 995.929 361.028 996.799 360.073 997.92 359.391 C 999.039 358.706 1000.314 358.364 1001.744 358.364 C 1003.771 358.364 1005.382 359.026 1006.578 360.351 C 1007.773 361.673 1008.37 363.466 1008.37 365.728 C 1008.37 366.155 1008.284 366.463 1008.113 366.655 C 1007.942 366.847 1007.665 366.943 1007.281 366.943 L 996.975 366.943 C 997.167 370.613 998.905 372.449 1002.191 372.449 C 1003.024 372.449 1003.74 372.337 1004.337 372.112 C 1004.934 371.888 1005.574 371.584 1006.257 371.201 C 1006.812 370.881 1007.185 370.721 1007.377 370.721 Z M 1001.775 360.382 C 1000.41 360.382 999.316 360.809 998.495 361.662 C 997.673 362.516 997.188 363.722 997.039 365.279 L 1006.098 365.279 C 1006.055 363.7 1005.66 362.489 1004.912 361.647 C 1004.166 360.803 1003.12 360.382 1001.775 360.382 Z M 1018.547 358.364 C 1022.452 358.364 1024.405 360.413 1024.405 364.512 L 1024.405 373.219 C 1024.405 373.602 1024.293 373.911 1024.068 374.145 C 1023.844 374.38 1023.54 374.497 1023.155 374.497 C 1022.771 374.497 1022.462 374.38 1022.228 374.145 C 1021.993 373.911 1021.876 373.602 1021.876 373.219 L 1021.876 371.681 C 1021.471 372.598 1020.851 373.308 1020.018 373.809 C 1019.186 374.311 1018.226 374.561 1017.138 374.561 C 1016.135 374.561 1015.212 374.358 1014.368 373.953 C 1013.526 373.547 1012.86 372.982 1012.368 372.256 C 1011.877 371.531 1011.632 370.731 1011.632 369.856 C 1011.632 368.682 1011.93 367.77 1012.528 367.12 C 1013.127 366.469 1014.109 366 1015.474 365.711 C 1016.84 365.423 1018.739 365.279 1021.17 365.279 L 1021.876 365.279 L 1021.876 364.222 C 1021.876 362.942 1021.614 362.003 1021.091 361.406 C 1020.569 360.809 1019.721 360.51 1018.547 360.51 C 1017.096 360.51 1015.623 360.904 1014.129 361.693 C 1013.553 362.056 1013.147 362.238 1012.913 362.238 C 1012.656 362.238 1012.443 362.142 1012.273 361.95 C 1012.102 361.758 1012.017 361.513 1012.017 361.213 C 1012.017 360.915 1012.107 360.654 1012.289 360.43 C 1012.47 360.206 1012.764 359.977 1013.169 359.742 C 1013.916 359.315 1014.763 358.978 1015.713 358.734 C 1016.663 358.487 1017.608 358.364 1018.547 358.364 Z M 1017.489 372.513 C 1018.77 372.513 1019.821 372.081 1020.644 371.217 C 1021.466 370.352 1021.876 369.237 1021.876 367.872 L 1021.876 366.943 L 1021.299 366.943 C 1019.422 366.943 1017.992 367.023 1017.009 367.184 C 1016.029 367.343 1015.33 367.61 1014.912 367.985 C 1014.496 368.358 1014.289 368.907 1014.289 369.633 C 1014.289 370.464 1014.593 371.152 1015.202 371.697 C 1015.81 372.241 1016.572 372.513 1017.489 372.513 Z M 1034.388 374.561 C 1033.407 374.561 1032.474 374.444 1031.588 374.21 C 1030.703 373.975 1029.919 373.645 1029.236 373.219 C 1028.851 372.962 1028.579 372.721 1028.42 372.497 C 1028.259 372.273 1028.179 372.001 1028.179 371.681 C 1028.179 371.404 1028.259 371.175 1028.42 370.993 C 1028.579 370.812 1028.787 370.721 1029.044 370.721 C 1029.299 370.721 1029.672 370.881 1030.163 371.201 C 1030.803 371.584 1031.438 371.888 1032.068 372.112 C 1032.697 372.337 1033.482 372.449 1034.421 372.449 C 1035.573 372.449 1036.469 372.246 1037.109 371.84 C 1037.749 371.435 1038.069 370.848 1038.069 370.08 C 1038.069 369.611 1037.952 369.232 1037.717 368.945 C 1037.483 368.656 1037.077 368.4 1036.501 368.177 C 1035.926 367.953 1035.083 367.723 1033.972 367.487 C 1032.095 367.081 1030.751 366.537 1029.94 365.854 C 1029.128 365.172 1028.723 364.244 1028.723 363.072 C 1028.723 362.153 1028.979 361.342 1029.49 360.638 C 1030.004 359.933 1030.714 359.378 1031.621 358.972 C 1032.528 358.567 1033.557 358.364 1034.709 358.364 C 1035.541 358.364 1036.346 358.476 1037.127 358.7 C 1037.905 358.924 1038.593 359.239 1039.191 359.645 C 1039.916 360.158 1040.279 360.692 1040.279 361.247 C 1040.279 361.524 1040.193 361.758 1040.022 361.95 C 1039.851 362.142 1039.649 362.238 1039.414 362.238 C 1039.157 362.238 1038.773 362.056 1038.262 361.693 C 1037.664 361.31 1037.099 361.011 1036.565 360.797 C 1036.032 360.584 1035.371 360.477 1034.581 360.477 C 1033.578 360.477 1032.773 360.701 1032.165 361.149 C 1031.556 361.598 1031.251 362.196 1031.251 362.943 C 1031.251 363.412 1031.363 363.79 1031.588 364.078 C 1031.812 364.367 1032.185 364.624 1032.709 364.848 C 1033.231 365.072 1033.983 365.29 1034.965 365.503 C 1036.417 365.823 1037.542 366.175 1038.341 366.56 C 1039.142 366.943 1039.713 367.412 1040.056 367.967 C 1040.396 368.523 1040.567 369.227 1040.567 370.08 C 1040.567 371.425 1040.001 372.508 1038.87 373.329 C 1037.739 374.15 1036.245 374.561 1034.388 374.561 Z M 1055.448 359.229 C 1055.683 358.717 1056.057 358.461 1056.57 358.461 C 1056.89 358.461 1057.178 358.568 1057.433 358.782 C 1057.689 358.995 1057.818 359.261 1057.818 359.581 C 1057.818 359.774 1057.775 359.945 1057.689 360.094 L 1048.695 379.492 C 1048.589 379.727 1048.434 379.908 1048.23 380.036 C 1048.028 380.163 1047.82 380.227 1047.606 380.227 C 1047.286 380.227 1047.004 380.125 1046.759 379.923 C 1046.513 379.722 1046.39 379.46 1046.39 379.138 C 1046.39 378.968 1046.432 378.798 1046.518 378.627 L 1048.759 373.794 L 1042.421 360.094 C 1042.336 359.945 1042.293 359.785 1042.293 359.614 C 1042.293 359.294 1042.437 359.017 1042.724 358.782 C 1043.013 358.546 1043.328 358.428 1043.669 358.428 C 1043.883 358.428 1044.091 358.492 1044.293 358.621 C 1044.496 358.749 1044.651 358.93 1044.757 359.165 L 1050.104 371.168 L 1055.448 359.229 Z" style="fill: rgb(229, 229, 229); line-height: 231.452px; white-space: pre;"/>
  <g transform="matrix(0.221212, 0, 0, 0.221212, 49.23394, 3.002112)">
    <path d="M 1078.656 1410.402 C 1078.656 1592.656 930.91 1740.402 748.656 1740.402 C 566.402 1740.402 418.656 1592.656 418.656 1410.402 C 418.656 1228.148 566.402 1080.402 748.656 1080.402 C 930.91 1080.402 1078.656 1228.148 1078.656 1410.402 Z" style="fill: url(#gradient-1); stroke: url(#gradient-0); stroke-width: 20px;"/>
    <path d="M 824.258 1410.922 C 824.258 1452.343 790.68 1485.922 749.258 1485.922 C 707.837 1485.922 674.258 1452.343 674.258 1410.922 C 674.258 1369.501 707.837 1335.922 749.258 1335.922 C 790.68 1335.922 824.258 1369.501 824.258 1410.922 Z" style="fill: rgb(255, 255, 255); stroke: rgb(152, 226, 255); stroke-width: 20px;"/>
    <path d="M 767.484 1212.324 C 767.484 1244.08 741.741 1269.824 709.984 1269.824 C 678.228 1269.824 652.484 1244.08 652.484 1212.324 C 652.484 1180.568 678.228 1154.824 709.984 1154.824 C 741.741 1154.824 767.484 1180.568 767.484 1212.324 Z" style="fill: rgb(212, 243, 255); stroke: rgb(99, 211, 255); stroke-width: 20px;"/>
    <path d="M 600.66 1344.245 C 600.66 1367.717 581.632 1386.745 558.16 1386.745 C 534.688 1386.745 515.66 1367.717 515.66 1344.245 C 515.66 1320.773 534.688 1301.745 558.16 1301.745 C 581.632 1301.745 600.66 1320.773 600.66 1344.245 Z" style="stroke: rgb(78, 193, 239); fill: rgb(179, 233, 255); stroke-width: 20px;"/>
    <path d="M 942.984 1277.757 C 942.984 1301.229 923.956 1320.257 900.484 1320.257 C 877.012 1320.257 857.984 1301.229 857.984 1277.757 C 857.984 1254.285 877.012 1235.257 900.484 1235.257 C 923.956 1235.257 942.984 1254.285 942.984 1277.757 Z" style="stroke: rgb(78, 193, 239); fill: rgb(179, 233, 255); stroke-width: 20px;"/>
    <path d="M 981.653 1476.167 C 981.653 1499.639 962.625 1518.667 939.153 1518.667 C 915.681 1518.667 896.653 1499.639 896.653 1476.167 C 896.653 1452.695 915.681 1433.667 939.153 1433.667 C 962.625 1433.667 981.653 1452.695 981.653 1476.167 Z" style="stroke: rgb(78, 193, 239); fill: rgb(179, 233, 255); stroke-width: 20px;"/>
    <path d="M 639.014 1542.715 C 639.014 1566.187 619.986 1585.215 596.514 1585.215 C 573.042 1585.215 554.014 1566.187 554.014 1542.715 C 554.014 1519.243 573.042 1500.215 596.514 1500.215 C 619.986 1500.215 639.014 1519.243 639.014 1542.715 Z" style="stroke: rgb(78, 193, 239); fill: rgb(179, 233, 255); stroke-width: 20px;"/>
    <path d="M 843.929 1608.479 C 843.929 1640.235 818.186 1665.979 786.429 1665.979 C 754.673 1665.979 728.929 1640.235 728.929 1608.479 C 728.929 1576.723 754.673 1550.979 786.429 1550.979 C 818.186 1550.979 843.929 1576.723 843.929 1608.479 Z" style="fill: rgb(212, 243, 255); stroke: rgb(99, 211, 255); stroke-width: 20px;"/>
  </g>
</svg>