<?xml version="1.0" encoding="utf-8"?>
<svg viewBox="0 0 186 65" xmlns="http://www.w3.org/2000/svg" xmlns:bx="https://boxy-svg.com" height="65px">
  <defs>
    <radialGradient id="gradient-1" gradientUnits="userSpaceOnUse" cx="152.286" cy="126.898" r="330" gradientTransform="matrix(0.638467, -1.091841, 1.097297, 0.641658, 52.656119, 215.401816)">
      <stop offset="0" style="stop-color: rgb(0, 170, 237);"/>
      <stop offset="1" style="stop-color: rgb(0, 145, 202);"/>
    </radialGradient>
    <linearGradient id="gradient-0" gradientUnits="userSpaceOnUse" x1="330" y1="0" x2="330" y2="660" gradientTransform="matrix(0.980745, -0.195296, 0.195753, 0.983035, -58.734308, 67.665557)">
      <stop offset="0" style="stop-color: rgb(152, 226, 255);"/>
      <stop offset="1" style="stop-color: rgb(78, 193, 239);"/>
    </linearGradient>
    <bx:grid x="0" y="0" width="190" height="80"/>
  </defs>
  <g transform="matrix(0.341978, 0, 0, 0.341978, -0.561026, 0.222589)">
    <g transform="matrix(0.283555, 0, 0, 0.283555, 3.122751, 1.671054)">
      <title>Logo</title>
      <circle style="fill: url(&quot;#gradient-1&quot;); stroke: url(&quot;#gradient-0&quot;); paint-order: fill; stroke-width: 10.3125px;" cx="329.929" cy="326.968" r="330">
        <title>Main circle</title>
      </circle>
      <g transform="matrix(1, 0, 0, 1, 76.243515, 77.183487)">
        <title>Inner circles</title>
        <circle style="fill: rgb(255, 255, 255); stroke: rgb(152, 226, 255); paint-order: fill; stroke-width: 10.3125px;" cx="254.358" cy="253.337" r="75"/>
        <circle style="fill: rgb(212, 243, 255); stroke: rgb(99, 211, 255); paint-order: fill; stroke-width: 10.3125px;" cx="215.084" cy="54.739" r="57.5"/>
        <circle style="stroke: rgb(78, 193, 239); fill: rgb(179, 233, 255); paint-order: fill; stroke-width: 10.3125px;" cx="63.26" cy="186.66" r="42.5"/>
        <circle style="stroke: rgb(78, 193, 239); fill: rgb(179, 233, 255); paint-order: fill; stroke-width: 10.3125px;" cx="405.584" cy="120.172" r="42.5"/>
        <circle style="stroke: rgb(78, 193, 239); fill: rgb(179, 233, 255); paint-order: fill; stroke-width: 10.3125px;" cx="444.253" cy="318.582" r="42.5"/>
        <circle style="stroke: rgb(78, 193, 239); fill: rgb(179, 233, 255); paint-order: fill; stroke-width: 10.3125px;" cx="101.614" cy="385.13" r="42.5"/>
        <circle style="fill: rgb(212, 243, 255); stroke: rgb(99, 211, 255); paint-order: fill; stroke-width: 10.3125px;" cx="291.529" cy="450.894" r="57.5"/>
      </g>
    </g>
    <g transform="matrix(1, 0, 0, 1, -3.848826, -4.564161)" style="">
      <title>Text</title>
      <path d="M 223.664 44.153 L 223.383 39.73 L 244.583 36.852 Q 244.303 32.991 241.916 30.499 Q 239.529 28.007 235.317 28.007 Q 230.965 28.007 228.122 31.131 Q 225.278 34.255 225.278 40.081 L 225.278 41.626 Q 225.77 47.242 228.964 50.155 Q 232.158 53.068 237.704 53.068 Q 240.652 53.068 243.039 52.086 Q 245.426 51.103 246.83 49.98 Q 247.602 50.471 248.058 51.138 Q 248.515 51.805 248.515 52.647 Q 248.515 53.981 247.005 55.139 Q 245.496 56.298 243.004 57 Q 240.512 57.702 237.423 57.702 Q 232.018 57.702 228.051 55.736 Q 224.085 53.77 221.944 49.874 Q 219.803 45.978 219.803 40.362 Q 219.803 36.361 220.961 33.237 Q 222.119 30.113 224.19 27.937 Q 226.261 25.761 229.139 24.602 Q 232.018 23.444 235.387 23.444 Q 239.669 23.444 242.934 25.269 Q 246.198 27.094 248.058 30.359 Q 249.919 33.623 249.919 37.835 Q 249.919 39.379 249.217 40.046 Q 248.515 40.713 247.251 40.854 Z M 269.644 53.139 Q 272.592 53.139 274.523 52.542 Q 276.453 51.945 277.296 51.384 L 277.296 41.205 L 268.591 42.117 Q 264.94 42.398 263.185 43.732 Q 261.43 45.066 261.43 47.593 Q 261.43 50.19 263.501 51.664 Q 265.572 53.139 269.644 53.139 Z M 269.574 23.444 Q 275.681 23.444 279.261 26.182 Q 282.841 28.92 282.841 34.816 L 282.841 51.454 Q 282.841 52.998 282.245 53.805 Q 281.648 54.613 280.455 55.315 Q 278.77 56.227 275.962 57 Q 273.154 57.772 269.644 57.772 Q 263.045 57.772 259.43 55.174 Q 255.814 52.577 255.814 47.663 Q 255.814 43.1 258.868 40.678 Q 261.922 38.256 267.327 37.765 L 277.296 36.782 L 277.296 34.816 Q 277.296 31.306 275.19 29.692 Q 273.084 28.077 269.503 28.077 Q 266.625 28.077 263.993 28.92 Q 261.36 29.762 259.324 30.815 Q 258.763 30.324 258.306 29.657 Q 257.85 28.99 257.85 28.288 Q 257.85 26.463 259.886 25.48 Q 261.781 24.497 264.273 23.97 Q 266.766 23.444 269.574 23.444 Z M 315.973 48.154 Q 315.973 52.647 312.674 55.174 Q 309.374 57.702 303.127 57.702 Q 297.791 57.702 294.422 56.052 Q 291.052 54.402 291.052 52.437 Q 291.052 51.594 291.509 50.787 Q 291.965 49.98 292.877 49.488 Q 294.773 50.822 297.3 51.945 Q 299.827 53.068 303.056 53.068 Q 310.357 53.068 310.357 48.154 Q 310.357 46.119 309.129 44.82 Q 307.9 43.521 305.513 42.96 L 299.687 41.415 Q 295.405 40.362 293.439 38.151 Q 291.473 35.94 291.473 32.64 Q 291.473 28.92 294.492 26.182 Q 297.511 23.444 303.688 23.444 Q 306.988 23.444 309.445 24.111 Q 311.902 24.778 313.271 25.866 Q 314.639 26.954 314.639 28.218 Q 314.639 29.13 314.183 29.832 Q 313.727 30.534 312.955 30.885 Q 312.112 30.324 310.814 29.657 Q 309.515 28.99 307.76 28.533 Q 306.005 28.077 303.899 28.077 Q 300.81 28.077 298.915 29.271 Q 297.019 30.464 297.019 32.64 Q 297.019 34.185 298.107 35.343 Q 299.195 36.501 301.582 37.063 L 306.426 38.256 Q 311.2 39.379 313.586 41.801 Q 315.973 44.223 315.973 48.154 Z M 330.013 49.558 Q 328.819 47.312 327.135 43.486 Q 325.45 39.66 323.66 34.922 Q 321.87 30.183 320.255 25.269 Q 320.746 24.567 321.554 24.146 Q 322.361 23.725 323.274 23.725 Q 324.467 23.725 325.239 24.357 Q 326.011 24.988 326.503 26.463 Q 328.609 32.359 330.925 38.186 Q 333.242 44.013 336.05 50.26 L 336.331 50.26 Q 337.805 47.312 339.42 42.889 Q 341.034 38.467 342.508 33.553 Q 343.983 28.639 344.965 24.286 Q 345.457 24.076 346.054 23.9 Q 346.65 23.725 347.352 23.725 Q 348.546 23.725 349.318 24.321 Q 350.09 24.918 350.09 26.112 Q 350.09 27.235 349.458 29.867 Q 348.826 32.5 347.738 35.975 Q 346.65 39.45 345.211 43.346 Q 343.772 47.242 342.122 50.997 Q 340.473 54.753 338.788 57.772 Q 335.559 63.739 332.891 66.933 Q 330.223 70.127 327.977 70.127 Q 326.362 70.127 325.485 69.285 Q 324.607 68.442 324.397 67.319 Q 325.941 65.985 327.872 63.774 Q 329.802 61.563 331.592 59 Q 333.382 56.438 334.506 54.121 Q 333.312 53.77 332.294 52.858 Q 331.276 51.945 330.013 49.558 Z" style="line-height: 191.825px; text-wrap-mode: nowrap;">
        <title>easy</title>
      </path>
      <path d="M 242.933 120.266 L 242.933 98.223 L 251.568 98.223 L 251.568 121.179 Q 251.568 122.723 250.901 123.741 Q 250.234 124.759 248.76 125.672 Q 247.075 126.795 244.162 127.672 Q 241.249 128.55 237.528 128.55 Q 231.982 128.55 227.875 126.689 Q 223.769 124.829 221.522 120.933 Q 219.276 117.037 219.276 111.07 Q 219.276 104.963 221.557 101.031 Q 223.839 97.1 227.7 95.24 Q 231.561 93.38 236.264 93.38 Q 238.862 93.38 241.003 94.011 Q 243.144 94.643 244.478 95.486 L 244.478 102.857 Q 243.355 101.804 241.529 101.031 Q 239.704 100.259 237.317 100.259 Q 234.72 100.259 232.614 101.347 Q 230.508 102.435 229.315 104.857 Q 228.121 107.279 228.121 111.14 Q 228.121 116.616 230.648 119.143 Q 233.176 121.67 237.458 121.67 Q 239.353 121.67 240.687 121.249 Q 242.021 120.828 242.933 120.266 Z M 251.568 99.978 L 242.933 100.049 L 242.933 81.937 Q 243.425 81.797 244.513 81.586 Q 245.601 81.375 246.794 81.375 Q 249.322 81.375 250.445 82.253 Q 251.568 83.13 251.568 85.377 Z M 260.251 84.464 Q 260.251 82.428 261.69 81.024 Q 263.129 79.62 265.305 79.62 Q 267.552 79.62 268.92 81.024 Q 270.289 82.428 270.289 84.464 Q 270.289 86.43 268.92 87.869 Q 267.552 89.308 265.305 89.308 Q 263.129 89.308 261.69 87.869 Q 260.251 86.43 260.251 84.464 Z M 260.953 109.034 L 269.658 109.034 L 269.658 127.427 Q 269.096 127.637 268.043 127.813 Q 266.99 127.988 265.726 127.988 Q 263.34 127.988 262.146 127.111 Q 260.953 126.233 260.953 123.987 Z M 269.658 113.457 L 260.953 113.457 L 260.953 94.643 Q 261.514 94.433 262.602 94.257 Q 263.691 94.082 264.954 94.082 Q 267.411 94.082 268.534 94.959 Q 269.658 95.837 269.658 98.153 Z M 286.062 103.278 L 286.062 96.539 L 300.172 96.539 Q 300.453 97.03 300.769 97.907 Q 301.084 98.785 301.084 99.908 Q 301.084 101.663 300.277 102.47 Q 299.47 103.278 297.996 103.278 Z M 287.395 93.169 L 287.395 102.225 L 279.112 102.225 L 279.112 92.818 Q 279.112 88.395 280.902 85.622 Q 282.692 82.85 285.886 81.551 Q 289.08 80.252 293.152 80.252 Q 297.715 80.252 300.102 81.446 Q 302.488 82.639 302.488 85.026 Q 302.488 86.079 302.032 86.956 Q 301.576 87.834 300.944 88.395 Q 299.61 87.834 297.961 87.483 Q 296.311 87.132 294.486 87.132 Q 290.765 87.132 289.08 88.536 Q 287.395 89.94 287.395 93.169 Z M 279.112 99.768 L 287.746 99.768 L 287.746 127.427 Q 287.185 127.637 286.132 127.813 Q 285.079 127.988 283.815 127.988 Q 281.428 127.988 280.27 127.111 Q 279.112 126.233 279.112 123.987 Z M 314.071 103.278 L 314.071 96.539 L 328.182 96.539 Q 328.462 97.03 328.778 97.907 Q 329.094 98.785 329.094 99.908 Q 329.094 101.663 328.287 102.47 Q 327.48 103.278 326.005 103.278 Z M 315.405 93.169 L 315.405 102.225 L 307.122 102.225 L 307.122 92.818 Q 307.122 88.395 308.912 85.622 Q 310.702 82.85 313.896 81.551 Q 317.09 80.252 321.162 80.252 Q 325.725 80.252 328.111 81.446 Q 330.498 82.639 330.498 85.026 Q 330.498 86.079 330.042 86.956 Q 329.586 87.834 328.954 88.395 Q 327.62 87.834 325.97 87.483 Q 324.321 87.132 322.495 87.132 Q 318.775 87.132 317.09 88.536 Q 315.405 89.94 315.405 93.169 Z M 307.122 99.768 L 315.756 99.768 L 315.756 127.427 Q 315.195 127.637 314.142 127.813 Q 313.089 127.988 311.825 127.988 Q 309.438 127.988 308.28 127.111 Q 307.122 126.233 307.122 123.987 Z M 344.661 102.295 L 344.661 111.912 L 336.027 111.912 L 336.027 101.593 Q 336.027 99.838 336.869 98.609 Q 337.711 97.381 339.256 96.328 Q 341.362 95.064 344.591 94.222 Q 347.82 93.38 351.541 93.38 Q 358.14 93.38 358.14 97.451 Q 358.14 98.434 357.859 99.241 Q 357.578 100.049 357.157 100.68 Q 356.455 100.54 355.402 100.435 Q 354.349 100.329 353.155 100.329 Q 350.628 100.329 348.417 100.856 Q 346.206 101.382 344.661 102.295 Z M 336.027 109.034 L 344.661 109.455 L 344.661 127.427 Q 344.1 127.637 343.047 127.813 Q 341.994 127.988 340.73 127.988 Q 338.343 127.988 337.185 127.111 Q 336.027 126.233 336.027 123.987 Z M 376.19 122.021 Q 378.296 122.021 379.981 121.6 Q 381.666 121.179 382.438 120.687 L 382.438 112.685 L 375.488 113.387 Q 372.61 113.597 371.101 114.615 Q 369.592 115.633 369.592 117.599 Q 369.592 119.634 371.206 120.828 Q 372.821 122.021 376.19 122.021 Z M 375.839 93.38 Q 382.719 93.38 386.791 96.293 Q 390.862 99.206 390.862 105.454 L 390.862 121.6 Q 390.862 123.285 390.055 124.268 Q 389.248 125.25 387.984 126.023 Q 386.018 127.146 383 127.883 Q 379.981 128.62 376.19 128.62 Q 369.17 128.62 365.169 125.917 Q 361.168 123.215 361.168 117.879 Q 361.168 113.176 364.151 110.684 Q 367.135 108.192 372.821 107.63 L 382.368 106.647 L 382.368 105.384 Q 382.368 102.576 380.437 101.312 Q 378.507 100.049 374.997 100.049 Q 372.259 100.049 369.662 100.751 Q 367.064 101.453 365.029 102.435 Q 364.327 101.874 363.765 100.891 Q 363.203 99.908 363.203 98.855 Q 363.203 96.328 366.011 95.135 Q 367.977 94.222 370.609 93.801 Q 373.242 93.38 375.839 93.38 Z M 416.735 100.329 Q 412.523 100.329 409.68 103.067 Q 406.837 105.805 406.837 111.07 Q 406.837 116.265 409.575 118.932 Q 412.313 121.6 416.665 121.6 Q 419.262 121.6 421.053 120.933 Q 422.843 120.266 424.176 119.494 Q 425.229 120.126 425.826 121.003 Q 426.423 121.881 426.423 123.144 Q 426.423 125.531 423.545 127.04 Q 420.666 128.55 415.963 128.55 Q 410.628 128.55 406.591 126.619 Q 402.555 124.689 400.273 120.758 Q 397.992 116.826 397.992 111.07 Q 397.992 105.103 400.414 101.172 Q 402.836 97.241 406.872 95.31 Q 410.909 93.38 415.752 93.38 Q 420.386 93.38 423.194 94.994 Q 426.002 96.609 426.002 98.996 Q 426.002 100.049 425.44 100.961 Q 424.878 101.874 424.106 102.435 Q 422.702 101.593 420.947 100.961 Q 419.192 100.329 416.735 100.329 Z M 433.673 109.034 L 442.308 109.034 L 442.308 117.318 Q 442.308 119.634 443.677 120.617 Q 445.046 121.6 447.573 121.6 Q 448.696 121.6 449.995 121.319 Q 451.293 121.038 452.206 120.617 Q 452.697 121.179 453.119 121.951 Q 453.54 122.723 453.54 123.846 Q 453.54 125.882 451.609 127.216 Q 449.679 128.55 445.607 128.55 Q 440.061 128.55 436.867 126.058 Q 433.673 123.566 433.673 117.95 Z M 438.938 101.874 L 438.938 95.064 L 452.697 95.064 Q 452.978 95.556 453.294 96.468 Q 453.61 97.381 453.61 98.364 Q 453.61 100.119 452.768 100.996 Q 451.925 101.874 450.591 101.874 Z M 442.308 110.93 L 433.673 110.93 L 433.673 85.658 Q 434.235 85.447 435.323 85.236 Q 436.411 85.026 437.604 85.026 Q 440.061 85.026 441.185 85.903 Q 442.308 86.781 442.308 89.027 Z M 460.139 84.464 Q 460.139 82.428 461.579 81.024 Q 463.018 79.62 465.194 79.62 Q 467.44 79.62 468.809 81.024 Q 470.178 82.428 470.178 84.464 Q 470.178 86.43 468.809 87.869 Q 467.44 89.308 465.194 89.308 Q 463.018 89.308 461.579 87.869 Q 460.139 86.43 460.139 84.464 Z M 460.841 109.034 L 469.546 109.034 L 469.546 127.427 Q 468.985 127.637 467.932 127.813 Q 466.879 127.988 465.615 127.988 Q 463.228 127.988 462.035 127.111 Q 460.841 126.233 460.841 123.987 Z M 469.546 113.457 L 460.841 113.457 L 460.841 94.643 Q 461.403 94.433 462.491 94.257 Q 463.579 94.082 464.843 94.082 Q 467.3 94.082 468.423 94.959 Q 469.546 95.837 469.546 98.153 Z M 511.433 110.93 Q 511.433 116.335 509.329 120.287 Q 507.225 124.239 503.392 126.394 Q 499.56 128.55 494.374 128.55 Q 489.193 128.55 485.325 126.409 Q 481.458 124.268 479.316 120.336 Q 477.175 116.405 477.175 110.93 Q 477.175 105.522 479.352 101.592 Q 481.528 97.662 485.389 95.521 Q 489.25 93.38 494.363 93.38 Q 499.477 93.38 503.312 95.548 Q 507.147 97.716 509.29 101.655 Q 511.433 105.594 511.433 110.93 Z M 494.329 100.259 Q 490.513 100.259 488.302 103.067 Q 486.091 105.875 486.091 110.93 Q 486.091 116.124 488.275 118.897 Q 490.459 121.67 494.374 121.67 Q 498.235 121.67 500.412 118.862 Q 502.588 116.054 502.588 110.93 Q 502.588 105.945 500.395 103.102 Q 498.202 100.259 494.329 100.259 Z M 549.467 105.875 L 549.467 112.685 L 540.832 112.685 L 540.832 106.226 Q 540.832 103.137 539.077 101.698 Q 537.322 100.259 534.374 100.259 Q 532.198 100.259 530.478 100.786 Q 528.758 101.312 527.424 102.014 L 527.424 112.685 L 518.789 112.685 L 518.789 101.453 Q 518.789 99.768 519.491 98.68 Q 520.193 97.592 521.597 96.679 Q 523.703 95.275 527.038 94.327 Q 530.372 93.38 534.444 93.38 Q 541.534 93.38 545.501 96.539 Q 549.467 99.698 549.467 105.875 Z M 518.789 109.245 L 527.424 109.245 L 527.424 127.427 Q 526.862 127.637 525.809 127.813 Q 524.756 127.988 523.493 127.988 Q 521.106 127.988 519.948 127.111 Q 518.789 126.233 518.789 123.987 Z M 540.832 109.245 L 549.467 109.245 L 549.467 127.427 Q 548.975 127.637 547.887 127.813 Q 546.799 127.988 545.606 127.988 Q 543.149 127.988 541.991 127.111 Q 540.832 126.233 540.832 123.987 Z" style="line-height: 191.825px; text-wrap-mode: nowrap;">
        <title>diffraction</title>
      </path>
      <path d="M 230.227 175.923 Q 232.193 175.923 233.48 175.526 Q 234.767 175.128 235.328 174.753 L 235.328 167.967 L 229.525 168.576 Q 227.091 168.763 225.921 169.652 Q 224.751 170.541 224.751 172.226 Q 224.751 173.958 226.132 174.941 Q 227.513 175.923 230.227 175.923 Z M 230.18 156.127 Q 234.252 156.127 236.639 157.952 Q 239.025 159.777 239.025 163.709 L 239.025 174.8 Q 239.025 175.83 238.628 176.368 Q 238.23 176.906 237.434 177.374 Q 236.311 177.983 234.439 178.497 Q 232.567 179.012 230.227 179.012 Q 225.828 179.012 223.418 177.281 Q 221.007 175.549 221.007 172.273 Q 221.007 169.231 223.043 167.616 Q 225.079 166.002 228.683 165.674 L 235.328 165.019 L 235.328 163.709 Q 235.328 161.369 233.924 160.292 Q 232.52 159.216 230.133 159.216 Q 228.215 159.216 226.46 159.777 Q 224.705 160.339 223.347 161.041 Q 222.973 160.713 222.669 160.269 Q 222.365 159.824 222.365 159.356 Q 222.365 158.139 223.722 157.484 Q 224.985 156.829 226.647 156.478 Q 228.308 156.127 230.18 156.127 Z M 255.075 178.965 Q 258.164 178.965 260.551 177.702 Q 262.937 176.438 264.271 173.888 Q 265.605 171.337 265.605 167.499 Q 265.605 163.521 264.131 161.018 Q 262.657 158.514 260.153 157.32 Q 257.649 156.127 254.56 156.127 Q 252.314 156.127 250.559 156.712 Q 248.804 157.297 247.54 157.999 Q 246.511 158.607 246.183 159.169 Q 245.855 159.731 245.855 160.667 L 245.855 176.111 L 249.599 176.111 L 249.599 160.573 Q 250.535 160.058 251.705 159.637 Q 252.875 159.216 254.56 159.216 Q 256.479 159.216 258.14 160.011 Q 259.802 160.807 260.808 162.609 Q 261.814 164.411 261.814 167.499 Q 261.814 171.899 259.825 173.888 Q 257.836 175.877 254.56 175.877 Q 252.548 175.877 251.12 175.198 Q 249.693 174.519 248.757 173.63 L 248.757 177.093 Q 249.553 177.795 251.308 178.38 Q 253.063 178.965 255.075 178.965 Z M 249.599 174.847 L 245.855 174.753 L 245.855 185.377 Q 245.855 186.266 246.37 186.687 Q 246.885 187.109 247.868 187.109 Q 248.429 187.109 248.897 186.992 Q 249.365 186.875 249.599 186.781 Z M 280.627 178.965 Q 283.716 178.965 286.103 177.702 Q 288.489 176.438 289.823 173.888 Q 291.157 171.337 291.157 167.499 Q 291.157 163.521 289.683 161.018 Q 288.209 158.514 285.705 157.32 Q 283.201 156.127 280.112 156.127 Q 277.866 156.127 276.111 156.712 Q 274.356 157.297 273.092 157.999 Q 272.063 158.607 271.735 159.169 Q 271.407 159.731 271.407 160.667 L 271.407 176.111 L 275.151 176.111 L 275.151 160.573 Q 276.087 160.058 277.257 159.637 Q 278.427 159.216 280.112 159.216 Q 282.031 159.216 283.692 160.011 Q 285.354 160.807 286.36 162.609 Q 287.366 164.411 287.366 167.499 Q 287.366 171.899 285.377 173.888 Q 283.388 175.877 280.112 175.877 Q 278.1 175.877 276.672 175.198 Q 275.245 174.519 274.309 173.63 L 274.309 177.093 Q 275.105 177.795 276.86 178.38 Q 278.615 178.965 280.627 178.965 Z M 275.151 174.847 L 271.407 174.753 L 271.407 185.377 Q 271.407 186.266 271.922 186.687 Q 272.437 187.109 273.42 187.109 Q 273.981 187.109 274.449 186.992 Q 274.917 186.875 275.151 186.781 Z M 297.334 166.002 L 301.078 166.563 L 301.078 178.263 Q 300.844 178.357 300.376 178.474 Q 299.908 178.591 299.346 178.591 Q 298.364 178.591 297.849 178.193 Q 297.334 177.795 297.334 176.906 Z M 301.078 168.342 L 297.334 167.827 L 297.334 148.031 Q 297.568 147.937 298.059 147.82 Q 298.551 147.703 299.066 147.703 Q 300.095 147.703 300.587 148.101 Q 301.078 148.499 301.078 149.388 Z M 308.236 149.903 Q 308.236 148.92 308.938 148.241 Q 309.64 147.563 310.67 147.563 Q 311.746 147.563 312.401 148.241 Q 313.057 148.92 313.057 149.903 Q 313.057 150.885 312.401 151.564 Q 311.746 152.243 310.67 152.243 Q 309.64 152.243 308.938 151.564 Q 308.236 150.885 308.236 149.903 Z M 308.798 166.002 L 312.542 166.002 L 312.542 178.263 Q 312.308 178.357 311.84 178.474 Q 311.372 178.591 310.81 178.591 Q 309.827 178.591 309.313 178.193 Q 308.798 177.795 308.798 176.906 Z M 312.542 167.827 L 308.798 167.827 L 308.798 156.829 Q 309.032 156.735 309.523 156.618 Q 310.015 156.501 310.576 156.501 Q 311.559 156.501 312.05 156.899 Q 312.542 157.297 312.542 158.233 Z M 329.858 159.263 Q 326.675 159.263 324.569 161.415 Q 322.463 163.568 322.463 167.593 Q 322.463 171.571 324.499 173.724 Q 326.535 175.877 329.858 175.877 Q 331.823 175.877 333.134 175.338 Q 334.444 174.8 335.474 174.098 Q 335.989 174.379 336.316 174.8 Q 336.644 175.221 336.644 175.83 Q 336.644 177.14 334.702 178.053 Q 332.759 178.965 329.858 178.965 Q 326.629 178.965 324.078 177.725 Q 321.527 176.485 320.077 173.958 Q 318.626 171.431 318.626 167.593 Q 318.626 163.802 320.123 161.252 Q 321.621 158.701 324.172 157.414 Q 326.722 156.127 329.764 156.127 Q 332.666 156.127 334.561 157.11 Q 336.457 158.093 336.457 159.356 Q 336.457 159.918 336.129 160.339 Q 335.801 160.76 335.287 160.994 Q 334.257 160.292 333.017 159.777 Q 331.777 159.263 329.858 159.263 Z M 350.122 175.923 Q 352.088 175.923 353.375 175.526 Q 354.662 175.128 355.223 174.753 L 355.223 167.967 L 349.42 168.576 Q 346.987 168.763 345.817 169.652 Q 344.647 170.541 344.647 172.226 Q 344.647 173.958 346.027 174.941 Q 347.408 175.923 350.122 175.923 Z M 350.075 156.127 Q 354.147 156.127 356.534 157.952 Q 358.921 159.777 358.921 163.709 L 358.921 174.8 Q 358.921 175.83 358.523 176.368 Q 358.125 176.906 357.329 177.374 Q 356.206 177.983 354.334 178.497 Q 352.462 179.012 350.122 179.012 Q 345.723 179.012 343.313 177.281 Q 340.903 175.549 340.903 172.273 Q 340.903 169.231 342.938 167.616 Q 344.974 166.002 348.578 165.674 L 355.223 165.019 L 355.223 163.709 Q 355.223 161.369 353.819 160.292 Q 352.415 159.216 350.029 159.216 Q 348.11 159.216 346.355 159.777 Q 344.6 160.339 343.243 161.041 Q 342.868 160.713 342.564 160.269 Q 342.26 159.824 342.26 159.356 Q 342.26 158.139 343.617 157.484 Q 344.881 156.829 346.542 156.478 Q 348.203 156.127 350.075 156.127 Z M 365.797 166.002 L 369.541 166.002 L 369.541 172.46 Q 369.541 174.332 370.618 175.104 Q 371.694 175.877 373.566 175.877 Q 374.362 175.877 375.344 175.596 Q 376.327 175.315 376.982 174.941 Q 377.263 175.221 377.497 175.643 Q 377.731 176.064 377.731 176.625 Q 377.731 177.655 376.514 178.31 Q 375.298 178.965 373.145 178.965 Q 369.869 178.965 367.833 177.515 Q 365.797 176.064 365.797 172.694 Z M 367.716 160.292 L 367.716 157.203 L 377.216 157.203 Q 377.357 157.391 377.497 157.812 Q 377.638 158.233 377.638 158.701 Q 377.638 159.45 377.263 159.871 Q 376.889 160.292 376.234 160.292 Z M 369.541 167.406 L 365.797 167.406 L 365.797 150.464 Q 366.031 150.371 366.523 150.254 Q 367.014 150.137 367.576 150.137 Q 368.558 150.137 369.05 150.534 Q 369.541 150.932 369.541 151.821 Z M 382.833 149.903 Q 382.833 148.92 383.535 148.241 Q 384.237 147.563 385.266 147.563 Q 386.343 147.563 386.998 148.241 Q 387.653 148.92 387.653 149.903 Q 387.653 150.885 386.998 151.564 Q 386.343 152.243 385.266 152.243 Q 384.237 152.243 383.535 151.564 Q 382.833 150.885 382.833 149.903 Z M 383.394 166.002 L 387.138 166.002 L 387.138 178.263 Q 386.904 178.357 386.436 178.474 Q 385.968 178.591 385.407 178.591 Q 384.424 178.591 383.909 178.193 Q 383.394 177.795 383.394 176.906 Z M 387.138 167.827 L 383.394 167.827 L 383.394 156.829 Q 383.628 156.735 384.12 156.618 Q 384.611 156.501 385.173 156.501 Q 386.155 156.501 386.647 156.899 Q 387.138 157.297 387.138 158.233 Z M 414.516 167.546 Q 414.516 171.009 413.206 173.583 Q 411.895 176.157 409.509 177.561 Q 407.122 178.965 403.893 178.965 Q 400.663 178.965 398.253 177.561 Q 395.843 176.157 394.533 173.583 Q 393.222 171.009 393.222 167.546 Q 393.222 164.036 394.556 161.486 Q 395.89 158.935 398.3 157.531 Q 400.71 156.127 403.893 156.127 Q 407.075 156.127 409.462 157.531 Q 411.849 158.935 413.182 161.486 Q 414.516 164.036 414.516 167.546 Z M 403.893 159.216 Q 400.757 159.216 398.908 161.439 Q 397.06 163.662 397.06 167.546 Q 397.06 171.477 398.862 173.677 Q 400.663 175.877 403.893 175.877 Q 407.075 175.877 408.877 173.654 Q 410.679 171.431 410.679 167.546 Q 410.679 163.662 408.877 161.439 Q 407.075 159.216 403.893 159.216 Z M 439.037 164.083 L 439.037 168.857 L 435.293 168.857 L 435.293 164.27 Q 435.293 161.649 433.818 160.433 Q 432.344 159.216 429.864 159.216 Q 427.992 159.216 426.541 159.684 Q 425.09 160.152 424.061 160.76 L 424.061 168.857 L 420.317 168.857 L 420.317 160.947 Q 420.317 159.965 420.714 159.333 Q 421.112 158.701 422.095 158.093 Q 423.312 157.391 425.324 156.759 Q 427.337 156.127 429.864 156.127 Q 434.123 156.127 436.58 158.069 Q 439.037 160.011 439.037 164.083 Z M 420.317 166.283 L 424.061 166.283 L 424.061 178.263 Q 423.827 178.357 423.359 178.474 Q 422.891 178.591 422.329 178.591 Q 421.346 178.591 420.831 178.193 Q 420.317 177.795 420.317 176.906 Z M 435.293 166.283 L 439.037 166.283 L 439.037 178.263 Q 438.803 178.357 438.311 178.474 Q 437.82 178.591 437.305 178.591 Q 436.275 178.591 435.784 178.193 Q 435.293 177.795 435.293 176.906 Z" style="line-height: 191.825px; text-wrap-mode: nowrap;">
        <title>application</title>
      </path>
    </g>
  </g>
</svg>