<?xml version="1.0" encoding="utf-8"?>
<svg viewBox="0 0 186 65" xmlns="http://www.w3.org/2000/svg" xmlns:bx="https://boxy-svg.com" height="65px">
  <defs>
    <radialGradient id="gradient-1" gradientUnits="userSpaceOnUse" cx="152.286" cy="126.898" r="330" gradientTransform="matrix(0.638467, -1.091841, 1.097297, 0.641658, 52.656119, 215.401816)">
      <stop offset="0" style="stop-color: rgb(0, 170, 237);"/>
      <stop offset="1" style="stop-color: rgb(0, 145, 202);"/>
    </radialGradient>
    <linearGradient id="gradient-0" gradientUnits="userSpaceOnUse" x1="330" y1="0" x2="330" y2="660" gradientTransform="matrix(0.980745, -0.195296, 0.195753, 0.983035, -58.734308, 67.665557)">
      <stop offset="0" style="stop-color: rgb(152, 226, 255);"/>
      <stop offset="1" style="stop-color: rgb(78, 193, 239);"/>
    </linearGradient>
    <bx:grid x="0" y="0" width="190" height="80"/>
  </defs>
  <g transform="matrix(0.341978, 0, 0, 0.341978, -0.561026, 0.222589)">
    <g transform="matrix(0.283555, 0, 0, 0.283555, 3.122751, 1.671054)">
      <title>Logo</title>
      <circle style="fill: url(&quot;#gradient-1&quot;); stroke: url(&quot;#gradient-0&quot;); paint-order: fill; stroke-width: 10.3125px;" cx="329.929" cy="326.968" r="330">
        <title>Main circle</title>
      </circle>
      <g transform="matrix(1, 0, 0, 1, 76.243515, 77.183487)">
        <title>Inner circles</title>
        <circle style="fill: rgb(255, 255, 255); stroke: rgb(152, 226, 255); paint-order: fill; stroke-width: 10.3125px;" cx="254.358" cy="253.337" r="75"/>
        <circle style="fill: rgb(212, 243, 255); stroke: rgb(99, 211, 255); paint-order: fill; stroke-width: 10.3125px;" cx="215.084" cy="54.739" r="57.5"/>
        <circle style="stroke: rgb(78, 193, 239); fill: rgb(179, 233, 255); paint-order: fill; stroke-width: 10.3125px;" cx="63.26" cy="186.66" r="42.5"/>
        <circle style="stroke: rgb(78, 193, 239); fill: rgb(179, 233, 255); paint-order: fill; stroke-width: 10.3125px;" cx="405.584" cy="120.172" r="42.5"/>
        <circle style="stroke: rgb(78, 193, 239); fill: rgb(179, 233, 255); paint-order: fill; stroke-width: 10.3125px;" cx="444.253" cy="318.582" r="42.5"/>
        <circle style="stroke: rgb(78, 193, 239); fill: rgb(179, 233, 255); paint-order: fill; stroke-width: 10.3125px;" cx="101.614" cy="385.13" r="42.5"/>
        <circle style="fill: rgb(212, 243, 255); stroke: rgb(99, 211, 255); paint-order: fill; stroke-width: 10.3125px;" cx="291.529" cy="450.894" r="57.5"/>
      </g>
    </g>
    <g transform="matrix(1, 0, 0, 1, -3.848826, -4.564161)" style="">
      <title>Text</title>
      <path d="M 223.664 44.153 L 223.383 39.73 L 244.583 36.852 Q 244.303 32.991 241.916 30.499 Q 239.529 28.007 235.317 28.007 Q 230.965 28.007 228.122 31.131 Q 225.278 34.255 225.278 40.081 L 225.278 41.626 Q 225.77 47.242 228.964 50.155 Q 232.158 53.068 237.704 53.068 Q 240.652 53.068 243.039 52.086 Q 245.426 51.103 246.83 49.98 Q 247.602 50.471 248.058 51.138 Q 248.515 51.805 248.515 52.647 Q 248.515 53.981 247.005 55.139 Q 245.496 56.298 243.004 57 Q 240.512 57.702 237.423 57.702 Q 232.018 57.702 228.051 55.736 Q 224.085 53.77 221.944 49.874 Q 219.803 45.978 219.803 40.362 Q 219.803 36.361 220.961 33.237 Q 222.119 30.113 224.19 27.937 Q 226.261 25.761 229.139 24.602 Q 232.018 23.444 235.387 23.444 Q 239.669 23.444 242.934 25.269 Q 246.198 27.094 248.058 30.359 Q 249.919 33.623 249.919 37.835 Q 249.919 39.379 249.217 40.046 Q 248.515 40.713 247.251 40.854 Z M 269.644 53.139 Q 272.592 53.139 274.523 52.542 Q 276.453 51.945 277.296 51.384 L 277.296 41.205 L 268.591 42.117 Q 264.94 42.398 263.185 43.732 Q 261.43 45.066 261.43 47.593 Q 261.43 50.19 263.501 51.664 Q 265.572 53.139 269.644 53.139 Z M 269.574 23.444 Q 275.681 23.444 279.261 26.182 Q 282.841 28.92 282.841 34.816 L 282.841 51.454 Q 282.841 52.998 282.245 53.805 Q 281.648 54.613 280.455 55.315 Q 278.77 56.227 275.962 57 Q 273.154 57.772 269.644 57.772 Q 263.045 57.772 259.43 55.174 Q 255.814 52.577 255.814 47.663 Q 255.814 43.1 258.868 40.678 Q 261.922 38.256 267.327 37.765 L 277.296 36.782 L 277.296 34.816 Q 277.296 31.306 275.19 29.692 Q 273.084 28.077 269.503 28.077 Q 266.625 28.077 263.993 28.92 Q 261.36 29.762 259.324 30.815 Q 258.763 30.324 258.306 29.657 Q 257.85 28.99 257.85 28.288 Q 257.85 26.463 259.886 25.48 Q 261.781 24.497 264.273 23.97 Q 266.766 23.444 269.574 23.444 Z M 315.973 48.154 Q 315.973 52.647 312.674 55.174 Q 309.374 57.702 303.127 57.702 Q 297.791 57.702 294.422 56.052 Q 291.052 54.402 291.052 52.437 Q 291.052 51.594 291.509 50.787 Q 291.965 49.98 292.877 49.488 Q 294.773 50.822 297.3 51.945 Q 299.827 53.068 303.056 53.068 Q 310.357 53.068 310.357 48.154 Q 310.357 46.119 309.129 44.82 Q 307.9 43.521 305.513 42.96 L 299.687 41.415 Q 295.405 40.362 293.439 38.151 Q 291.473 35.94 291.473 32.64 Q 291.473 28.92 294.492 26.182 Q 297.511 23.444 303.688 23.444 Q 306.988 23.444 309.445 24.111 Q 311.902 24.778 313.271 25.866 Q 314.639 26.954 314.639 28.218 Q 314.639 29.13 314.183 29.832 Q 313.727 30.534 312.955 30.885 Q 312.112 30.324 310.814 29.657 Q 309.515 28.99 307.76 28.533 Q 306.005 28.077 303.899 28.077 Q 300.81 28.077 298.915 29.271 Q 297.019 30.464 297.019 32.64 Q 297.019 34.185 298.107 35.343 Q 299.195 36.501 301.582 37.063 L 306.426 38.256 Q 311.2 39.379 313.586 41.801 Q 315.973 44.223 315.973 48.154 Z M 330.013 49.558 Q 328.819 47.312 327.135 43.486 Q 325.45 39.66 323.66 34.922 Q 321.87 30.183 320.255 25.269 Q 320.746 24.567 321.554 24.146 Q 322.361 23.725 323.274 23.725 Q 324.467 23.725 325.239 24.357 Q 326.011 24.988 326.503 26.463 Q 328.609 32.359 330.925 38.186 Q 333.242 44.013 336.05 50.26 L 336.331 50.26 Q 337.805 47.312 339.42 42.889 Q 341.034 38.467 342.508 33.553 Q 343.983 28.639 344.965 24.286 Q 345.457 24.076 346.054 23.9 Q 346.65 23.725 347.352 23.725 Q 348.546 23.725 349.318 24.321 Q 350.09 24.918 350.09 26.112 Q 350.09 27.235 349.458 29.867 Q 348.826 32.5 347.738 35.975 Q 346.65 39.45 345.211 43.346 Q 343.772 47.242 342.122 50.997 Q 340.473 54.753 338.788 57.772 Q 335.559 63.739 332.891 66.933 Q 330.223 70.127 327.977 70.127 Q 326.362 70.127 325.485 69.285 Q 324.607 68.442 324.397 67.319 Q 325.941 65.985 327.872 63.774 Q 329.802 61.563 331.592 59 Q 333.382 56.438 334.506 54.121 Q 333.312 53.77 332.294 52.858 Q 331.276 51.945 330.013 49.558 Z" style="line-height: 191.825px; text-wrap-mode: nowrap; fill: rgb(255, 255, 255);">
        <title>easy</title>
      </path>
      <path d="M 242.933 120.266 L 242.933 98.223 L 251.568 98.223 L 251.568 121.179 Q 251.568 122.723 250.901 123.741 Q 250.234 124.759 248.76 125.672 Q 247.075 126.795 244.162 127.672 Q 241.249 128.55 237.528 128.55 Q 231.982 128.55 227.875 126.689 Q 223.769 124.829 221.522 120.933 Q 219.276 117.037 219.276 111.07 Q 219.276 104.963 221.557 101.031 Q 223.839 97.1 227.7 95.24 Q 231.561 93.38 236.264 93.38 Q 238.862 93.38 241.003 94.011 Q 243.144 94.643 244.478 95.486 L 244.478 102.857 Q 243.355 101.804 241.529 101.031 Q 239.704 100.259 237.317 100.259 Q 234.72 100.259 232.614 101.347 Q 230.508 102.435 229.315 104.857 Q 228.121 107.279 228.121 111.14 Q 228.121 116.616 230.648 119.143 Q 233.176 121.67 237.458 121.67 Q 239.353 121.67 240.687 121.249 Q 242.021 120.828 242.933 120.266 Z M 251.568 99.978 L 242.933 100.049 L 242.933 81.937 Q 243.425 81.797 244.513 81.586 Q 245.601 81.375 246.794 81.375 Q 249.322 81.375 250.445 82.253 Q 251.568 83.13 251.568 85.377 Z M 260.251 84.464 Q 260.251 82.428 261.69 81.024 Q 263.129 79.62 265.305 79.62 Q 267.552 79.62 268.92 81.024 Q 270.289 82.428 270.289 84.464 Q 270.289 86.43 268.92 87.869 Q 267.552 89.308 265.305 89.308 Q 263.129 89.308 261.69 87.869 Q 260.251 86.43 260.251 84.464 Z M 260.953 109.034 L 269.658 109.034 L 269.658 127.427 Q 269.096 127.637 268.043 127.813 Q 266.99 127.988 265.726 127.988 Q 263.34 127.988 262.146 127.111 Q 260.953 126.233 260.953 123.987 Z M 269.658 113.457 L 260.953 113.457 L 260.953 94.643 Q 261.514 94.433 262.602 94.257 Q 263.691 94.082 264.954 94.082 Q 267.411 94.082 268.534 94.959 Q 269.658 95.837 269.658 98.153 Z M 286.062 103.278 L 286.062 96.539 L 300.172 96.539 Q 300.453 97.03 300.769 97.907 Q 301.084 98.785 301.084 99.908 Q 301.084 101.663 300.277 102.47 Q 299.47 103.278 297.996 103.278 Z M 287.395 93.169 L 287.395 102.225 L 279.112 102.225 L 279.112 92.818 Q 279.112 88.395 280.902 85.622 Q 282.692 82.85 285.886 81.551 Q 289.08 80.252 293.152 80.252 Q 297.715 80.252 300.102 81.446 Q 302.488 82.639 302.488 85.026 Q 302.488 86.079 302.032 86.956 Q 301.576 87.834 300.944 88.395 Q 299.61 87.834 297.961 87.483 Q 296.311 87.132 294.486 87.132 Q 290.765 87.132 289.08 88.536 Q 287.395 89.94 287.395 93.169 Z M 279.112 99.768 L 287.746 99.768 L 287.746 127.427 Q 287.185 127.637 286.132 127.813 Q 285.079 127.988 283.815 127.988 Q 281.428 127.988 280.27 127.111 Q 279.112 126.233 279.112 123.987 Z M 314.071 103.278 L 314.071 96.539 L 328.182 96.539 Q 328.462 97.03 328.778 97.907 Q 329.094 98.785 329.094 99.908 Q 329.094 101.663 328.287 102.47 Q 327.48 103.278 326.005 103.278 Z M 315.405 93.169 L 315.405 102.225 L 307.122 102.225 L 307.122 92.818 Q 307.122 88.395 308.912 85.622 Q 310.702 82.85 313.896 81.551 Q 317.09 80.252 321.162 80.252 Q 325.725 80.252 328.111 81.446 Q 330.498 82.639 330.498 85.026 Q 330.498 86.079 330.042 86.956 Q 329.586 87.834 328.954 88.395 Q 327.62 87.834 325.97 87.483 Q 324.321 87.132 322.495 87.132 Q 318.775 87.132 317.09 88.536 Q 315.405 89.94 315.405 93.169 Z M 307.122 99.768 L 315.756 99.768 L 315.756 127.427 Q 315.195 127.637 314.142 127.813 Q 313.089 127.988 311.825 127.988 Q 309.438 127.988 308.28 127.111 Q 307.122 126.233 307.122 123.987 Z M 344.661 102.295 L 344.661 111.912 L 336.027 111.912 L 336.027 101.593 Q 336.027 99.838 336.869 98.609 Q 337.711 97.381 339.256 96.328 Q 341.362 95.064 344.591 94.222 Q 347.82 93.38 351.541 93.38 Q 358.14 93.38 358.14 97.451 Q 358.14 98.434 357.859 99.241 Q 357.578 100.049 357.157 100.68 Q 356.455 100.54 355.402 100.435 Q 354.349 100.329 353.155 100.329 Q 350.628 100.329 348.417 100.856 Q 346.206 101.382 344.661 102.295 Z M 336.027 109.034 L 344.661 109.455 L 344.661 127.427 Q 344.1 127.637 343.047 127.813 Q 341.994 127.988 340.73 127.988 Q 338.343 127.988 337.185 127.111 Q 336.027 126.233 336.027 123.987 Z M 376.19 122.021 Q 378.296 122.021 379.981 121.6 Q 381.666 121.179 382.438 120.687 L 382.438 112.685 L 375.488 113.387 Q 372.61 113.597 371.101 114.615 Q 369.592 115.633 369.592 117.599 Q 369.592 119.634 371.206 120.828 Q 372.821 122.021 376.19 122.021 Z M 375.839 93.38 Q 382.719 93.38 386.791 96.293 Q 390.862 99.206 390.862 105.454 L 390.862 121.6 Q 390.862 123.285 390.055 124.268 Q 389.248 125.25 387.984 126.023 Q 386.018 127.146 383 127.883 Q 379.981 128.62 376.19 128.62 Q 369.17 128.62 365.169 125.917 Q 361.168 123.215 361.168 117.879 Q 361.168 113.176 364.151 110.684 Q 367.135 108.192 372.821 107.63 L 382.368 106.647 L 382.368 105.384 Q 382.368 102.576 380.437 101.312 Q 378.507 100.049 374.997 100.049 Q 372.259 100.049 369.662 100.751 Q 367.064 101.453 365.029 102.435 Q 364.327 101.874 363.765 100.891 Q 363.203 99.908 363.203 98.855 Q 363.203 96.328 366.011 95.135 Q 367.977 94.222 370.609 93.801 Q 373.242 93.38 375.839 93.38 Z M 416.735 100.329 Q 412.523 100.329 409.68 103.067 Q 406.837 105.805 406.837 111.07 Q 406.837 116.265 409.575 118.932 Q 412.313 121.6 416.665 121.6 Q 419.262 121.6 421.053 120.933 Q 422.843 120.266 424.176 119.494 Q 425.229 120.126 425.826 121.003 Q 426.423 121.881 426.423 123.144 Q 426.423 125.531 423.545 127.04 Q 420.666 128.55 415.963 128.55 Q 410.628 128.55 406.591 126.619 Q 402.555 124.689 400.273 120.758 Q 397.992 116.826 397.992 111.07 Q 397.992 105.103 400.414 101.172 Q 402.836 97.241 406.872 95.31 Q 410.909 93.38 415.752 93.38 Q 420.386 93.38 423.194 94.994 Q 426.002 96.609 426.002 98.996 Q 426.002 100.049 425.44 100.961 Q 424.878 101.874 424.106 102.435 Q 422.702 101.593 420.947 100.961 Q 419.192 100.329 416.735 100.329 Z M 433.673 109.034 L 442.308 109.034 L 442.308 117.318 Q 442.308 119.634 443.677 120.617 Q 445.046 121.6 447.573 121.6 Q 448.696 121.6 449.995 121.319 Q 451.293 121.038 452.206 120.617 Q 452.697 121.179 453.119 121.951 Q 453.54 122.723 453.54 123.846 Q 453.54 125.882 451.609 127.216 Q 449.679 128.55 445.607 128.55 Q 440.061 128.55 436.867 126.058 Q 433.673 123.566 433.673 117.95 Z M 438.938 101.874 L 438.938 95.064 L 452.697 95.064 Q 452.978 95.556 453.294 96.468 Q 453.61 97.381 453.61 98.364 Q 453.61 100.119 452.768 100.996 Q 451.925 101.874 450.591 101.874 Z M 442.308 110.93 L 433.673 110.93 L 433.673 85.658 Q 434.235 85.447 435.323 85.236 Q 436.411 85.026 437.604 85.026 Q 440.061 85.026 441.185 85.903 Q 442.308 86.781 442.308 89.027 Z M 460.139 84.464 Q 460.139 82.428 461.579 81.024 Q 463.018 79.62 465.194 79.62 Q 467.44 79.62 468.809 81.024 Q 470.178 82.428 470.178 84.464 Q 470.178 86.43 468.809 87.869 Q 467.44 89.308 465.194 89.308 Q 463.018 89.308 461.579 87.869 Q 460.139 86.43 460.139 84.464 Z M 460.841 109.034 L 469.546 109.034 L 469.546 127.427 Q 468.985 127.637 467.932 127.813 Q 466.879 127.988 465.615 127.988 Q 463.228 127.988 462.035 127.111 Q 460.841 126.233 460.841 123.987 Z M 469.546 113.457 L 460.841 113.457 L 460.841 94.643 Q 461.403 94.433 462.491 94.257 Q 463.579 94.082 464.843 94.082 Q 467.3 94.082 468.423 94.959 Q 469.546 95.837 469.546 98.153 Z M 511.433 110.93 Q 511.433 116.335 509.329 120.287 Q 507.225 124.239 503.392 126.394 Q 499.56 128.55 494.374 128.55 Q 489.193 128.55 485.325 126.409 Q 481.458 124.268 479.316 120.336 Q 477.175 116.405 477.175 110.93 Q 477.175 105.522 479.352 101.592 Q 481.528 97.662 485.389 95.521 Q 489.25 93.38 494.363 93.38 Q 499.477 93.38 503.312 95.548 Q 507.147 97.716 509.29 101.655 Q 511.433 105.594 511.433 110.93 Z M 494.329 100.259 Q 490.513 100.259 488.302 103.067 Q 486.091 105.875 486.091 110.93 Q 486.091 116.124 488.275 118.897 Q 490.459 121.67 494.374 121.67 Q 498.235 121.67 500.412 118.862 Q 502.588 116.054 502.588 110.93 Q 502.588 105.945 500.395 103.102 Q 498.202 100.259 494.329 100.259 Z M 549.467 105.875 L 549.467 112.685 L 540.832 112.685 L 540.832 106.226 Q 540.832 103.137 539.077 101.698 Q 537.322 100.259 534.374 100.259 Q 532.198 100.259 530.478 100.786 Q 528.758 101.312 527.424 102.014 L 527.424 112.685 L 518.789 112.685 L 518.789 101.453 Q 518.789 99.768 519.491 98.68 Q 520.193 97.592 521.597 96.679 Q 523.703 95.275 527.038 94.327 Q 530.372 93.38 534.444 93.38 Q 541.534 93.38 545.501 96.539 Q 549.467 99.698 549.467 105.875 Z M 518.789 109.245 L 527.424 109.245 L 527.424 127.427 Q 526.862 127.637 525.809 127.813 Q 524.756 127.988 523.493 127.988 Q 521.106 127.988 519.948 127.111 Q 518.789 126.233 518.789 123.987 Z M 540.832 109.245 L 549.467 109.245 L 549.467 127.427 Q 548.975 127.637 547.887 127.813 Q 546.799 127.988 545.606 127.988 Q 543.149 127.988 541.991 127.111 Q 540.832 126.233 540.832 123.987 Z" style="line-height: 191.825px; text-wrap-mode: nowrap; fill: rgb(255, 255, 255);">
        <title>diffraction</title>
      </path>
      <path d="M 222.879 166.002 L 226.623 166.563 L 226.623 178.263 Q 226.389 178.357 225.921 178.474 Q 225.453 178.591 224.892 178.591 Q 223.909 178.591 223.394 178.193 Q 222.879 177.795 222.879 176.906 Z M 226.623 168.342 L 222.879 167.827 L 222.879 148.031 Q 223.113 147.937 223.605 147.82 Q 224.096 147.703 224.611 147.703 Q 225.641 147.703 226.132 148.101 Q 226.623 148.499 226.623 149.388 Z M 233.782 149.903 Q 233.782 148.92 234.484 148.241 Q 235.186 147.563 236.215 147.563 Q 237.292 147.563 237.947 148.241 Q 238.602 148.92 238.602 149.903 Q 238.602 150.885 237.947 151.564 Q 237.292 152.243 236.215 152.243 Q 235.186 152.243 234.484 151.564 Q 233.782 150.885 233.782 149.903 Z M 234.343 166.002 L 238.087 166.002 L 238.087 178.263 Q 237.853 178.357 237.385 178.474 Q 236.917 178.591 236.356 178.591 Q 235.373 178.591 234.858 178.193 Q 234.343 177.795 234.343 176.906 Z M 238.087 167.827 L 234.343 167.827 L 234.343 156.829 Q 234.577 156.735 235.069 156.618 Q 235.56 156.501 236.122 156.501 Q 237.104 156.501 237.596 156.899 Q 238.087 157.297 238.087 158.233 Z M 255.029 156.127 Q 257.93 156.127 260.247 157.367 Q 262.564 158.607 263.897 161.135 Q 265.231 163.662 265.231 167.546 Q 265.231 171.477 263.851 174.005 Q 262.47 176.532 260.036 177.749 Q 257.603 178.965 254.374 178.965 Q 252.08 178.965 250.232 178.404 Q 248.383 177.842 247.213 177.187 Q 246.23 176.532 245.856 175.97 Q 245.482 175.409 245.482 174.426 L 245.482 158.841 L 249.226 158.841 L 249.226 174.426 Q 249.928 174.941 251.285 175.409 Q 252.642 175.877 254.374 175.877 Q 257.556 175.877 259.498 173.864 Q 261.44 171.852 261.44 167.546 Q 261.44 163.194 259.475 161.205 Q 257.509 159.216 254.467 159.216 Q 252.595 159.216 251.144 159.941 Q 249.694 160.667 248.758 161.603 L 248.056 158.561 Q 249.085 157.765 250.817 156.946 Q 252.548 156.127 255.029 156.127 Z M 249.226 159.59 L 245.482 159.59 L 245.482 148.031 Q 245.716 147.937 246.207 147.82 Q 246.698 147.703 247.26 147.703 Q 248.243 147.703 248.734 148.101 Q 249.226 148.499 249.226 149.388 Z M 274.823 160.76 L 274.823 168.155 L 271.079 168.155 L 271.079 161.041 Q 271.079 159.965 271.476 159.333 Q 271.874 158.701 272.81 158.093 Q 274.027 157.297 276.133 156.712 Q 278.239 156.127 280.813 156.127 Q 284.557 156.127 284.557 157.999 Q 284.557 158.467 284.417 158.865 Q 284.276 159.263 284.042 159.543 Q 283.574 159.45 282.825 159.356 Q 282.077 159.263 281.328 159.263 Q 279.175 159.263 277.537 159.707 Q 275.899 160.152 274.823 160.76 Z M 271.079 166.002 L 274.823 166.563 L 274.823 178.263 Q 274.589 178.357 274.121 178.474 Q 273.653 178.591 273.091 178.591 Q 272.108 178.591 271.593 178.193 Q 271.079 177.795 271.079 176.906 Z M 296.446 175.923 Q 298.411 175.923 299.698 175.526 Q 300.985 175.128 301.547 174.753 L 301.547 167.967 L 295.744 168.576 Q 293.31 168.763 292.14 169.652 Q 290.97 170.541 290.97 172.226 Q 290.97 173.958 292.351 174.941 Q 293.731 175.923 296.446 175.923 Z M 296.399 156.127 Q 300.471 156.127 302.857 157.952 Q 305.244 159.777 305.244 163.709 L 305.244 174.8 Q 305.244 175.83 304.846 176.368 Q 304.449 176.906 303.653 177.374 Q 302.53 177.983 300.658 178.497 Q 298.786 179.012 296.446 179.012 Q 292.047 179.012 289.636 177.281 Q 287.226 175.549 287.226 172.273 Q 287.226 169.231 289.262 167.616 Q 291.298 166.002 294.901 165.674 L 301.547 165.019 L 301.547 163.709 Q 301.547 161.369 300.143 160.292 Q 298.739 159.216 296.352 159.216 Q 294.433 159.216 292.678 159.777 Q 290.923 160.339 289.566 161.041 Q 289.192 160.713 288.888 160.269 Q 288.583 159.824 288.583 159.356 Q 288.583 158.139 289.941 157.484 Q 291.204 156.829 292.866 156.478 Q 294.527 156.127 296.399 156.127 Z M 315.818 160.76 L 315.818 168.155 L 312.074 168.155 L 312.074 161.041 Q 312.074 159.965 312.472 159.333 Q 312.87 158.701 313.806 158.093 Q 315.022 157.297 317.128 156.712 Q 319.234 156.127 321.808 156.127 Q 325.552 156.127 325.552 157.999 Q 325.552 158.467 325.412 158.865 Q 325.272 159.263 325.038 159.543 Q 324.57 159.45 323.821 159.356 Q 323.072 159.263 322.323 159.263 Q 320.17 159.263 318.532 159.707 Q 316.894 160.152 315.818 160.76 Z M 312.074 166.002 L 315.818 166.563 L 315.818 178.263 Q 315.584 178.357 315.116 178.474 Q 314.648 178.591 314.086 178.591 Q 313.104 178.591 312.589 178.193 Q 312.074 177.795 312.074 176.906 Z M 335.098 173.537 Q 334.303 172.039 333.179 169.488 Q 332.056 166.938 330.863 163.779 Q 329.669 160.62 328.593 157.344 Q 328.921 156.876 329.459 156.595 Q 329.997 156.314 330.605 156.314 Q 331.401 156.314 331.916 156.735 Q 332.431 157.157 332.758 158.139 Q 334.162 162.071 335.707 165.955 Q 337.251 169.839 339.123 174.005 L 339.31 174.005 Q 340.293 172.039 341.369 169.091 Q 342.446 166.142 343.429 162.866 Q 344.411 159.59 345.067 156.689 Q 345.394 156.548 345.792 156.431 Q 346.19 156.314 346.658 156.314 Q 347.453 156.314 347.968 156.712 Q 348.483 157.11 348.483 157.905 Q 348.483 158.654 348.062 160.409 Q 347.641 162.164 346.915 164.481 Q 346.19 166.797 345.23 169.395 Q 344.271 171.992 343.171 174.496 Q 342.071 177 340.948 179.012 Q 338.795 182.99 337.017 185.12 Q 335.239 187.249 333.741 187.249 Q 332.665 187.249 332.08 186.687 Q 331.495 186.126 331.354 185.377 Q 332.384 184.488 333.671 183.014 Q 334.958 181.539 336.151 179.831 Q 337.345 178.123 338.093 176.579 Q 337.298 176.345 336.619 175.736 Q 335.941 175.128 335.098 173.537 Z" style="line-height: 191.825px; text-wrap-mode: nowrap; fill: rgb(255, 255, 255);">
        <title>library</title>
      </path>
    </g>
  </g>
</svg>